<?xml version="1.0" encoding="UTF-8"?>
<svg width="126px" height="143px" viewBox="0 0 126 143" version="1.1" xmlns="http://www.w3.org/2000/svg" xmlns:xlink="http://www.w3.org/1999/xlink">
    <!-- Generator: Sketch 54.1 (76490) - https://sketchapp.com -->
    <title>Group 6</title>
    <desc>Created with Sketch.</desc>
    <g id="Interface" stroke="none" stroke-width="1" fill="none" fill-rule="evenodd">
        <g id="Home-/-Web" transform="translate(-1132.000000, -2234.000000)">
            <g id="Section-Eixos" transform="translate(150.000000, 2040.000000)">
                <g id="Box-4" transform="translate(897.000000, 169.000000)">
                    <g id="Group-6" transform="translate(85.000000, 0.000000)">
                        <text id="Title" font-family="Arial-BoldMT, Arial" font-size="138" font-weight="bold" fill="#E5ECED">
                            <tspan x="52.1254883" y="125">4</tspan>
                        </text>
                        <g id="house" transform="translate(0.000000, 95.000000)" fill-rule="nonzero">
                            <path d="M71.574181,70.1485787 L65.300763,70.1485787 L65.300763,58.8849013 C65.300763,58.0974419 64.6623001,57.4591194 63.8749862,57.4591194 C63.0876722,57.4591194 62.4492093,58.0974419 62.4492093,58.8849013 L62.4492093,70.1485787 L45.3398876,70.1485787 L45.3398876,43.0587217 C45.3398876,42.2712623 44.7014247,41.6329398 43.9141107,41.6329398 L29.0860318,41.6329398 C28.2987179,41.6329398 27.660255,42.2712623 27.660255,43.0587217 L27.660255,70.1485787 L10.5509332,70.1485787 L10.5509332,37.9257641 L11.0995721,37.9257641 C11.4776882,37.9257641 11.8402632,37.7754867 12.1077389,37.5081526 L36.5000713,13.1157325 L60.8924036,37.5081526 C61.1598794,37.7754867 61.5224544,37.9257641 61.9005704,37.9257641 L62.4492093,37.9257641 L62.4492093,48.6191287 C62.4492093,49.4065881 63.0876722,50.0449107 63.8749862,50.0449107 C64.6623001,50.0449107 65.300763,49.4065881 65.300763,48.6191287 L65.300763,37.9257641 L71.574181,37.9257641 C72.1509077,37.9257641 72.6707459,37.5783011 72.8914562,37.0456289 C73.1121664,36.5129568 72.9899774,35.8995854 72.5823478,35.4918118 L37.5082381,0.417575887 C36.9513297,-0.139191962 36.0488129,-0.139191962 35.4917619,0.417575887 L22.0894598,13.8199262 C21.532694,14.376694 21.532694,15.2794992 22.0894598,15.836267 C22.6463683,16.3931774 23.5491702,16.3931774 24.105936,15.836267 L36.5000713,3.44208713 L68.131928,35.0742002 L62.4911272,35.0742002 L37.5082381,10.0912212 C36.9513297,9.53445339 36.0488129,9.53445339 35.4917619,10.0912212 L10.5088728,35.0742002 L4.868072,35.0742002 L16.1215858,23.8207885 C16.6783517,23.2640206 16.6783517,22.3612155 16.1215858,21.8043051 C15.56482,21.2476798 14.6620181,21.2475372 14.1051097,21.8043051 L0.417652241,35.4918118 C0.0100226487,35.8995854 -0.112166424,36.5128142 0.108543827,37.0456289 C0.329254078,37.5784436 0.849234883,37.9257641 1.42596161,37.9257641 L7.6993796,37.9257641 L7.6993796,70.1484361 L1.42596161,70.1484361 C0.638647647,70.1484361 0.000184788672,70.7867587 0.000184788672,71.5742181 C0.000184788672,72.3616774 0.638647647,73 1.42596161,73 L9.12515641,73 L29.0860318,73 L43.9141107,73 L63.8749862,73 L71.574181,73 C72.3614949,73 72.9999578,72.3616774 72.9999578,71.5742181 C72.9999578,70.7867587 72.3614949,70.1485787 71.574181,70.1485787 Z M42.4883339,70.1485787 L30.5118087,70.1485787 L30.5118087,44.4845037 L42.4883339,44.4845037 L42.4883339,70.1485787 Z" id="Shape" fill="#1F2A47"></path>
                            <path d="M58.5526316,42 L50.4473684,42 C49.6481316,42 49,42.6342417 49,43.4166667 L49,57.5833333 C49,58.3657583 49.6481316,59 50.4473684,59 L58.5526316,59 C59.3518684,59 60,58.3657583 60,57.5833333 L60,43.4166667 C60,42.6342417 59.3518684,42 58.5526316,42 Z M57.1052632,56.1666667 L51.8947368,56.1666667 L51.8947368,44.8333333 L57.1052632,44.8333333 L57.1052632,56.1666667 Z" id="Shape" fill="#1F2A47"></path>
                            <path d="M23.5526316,42 L15.4473684,42 C14.6481316,42 14,42.6342417 14,43.4166667 L14,57.5833333 C14,58.3657583 14.6481316,59 15.4473684,59 L23.5526316,59 C24.3518684,59 25,58.3657583 25,57.5833333 L25,43.4166667 C25,42.6342417 24.3518684,42 23.5526316,42 Z M22.1052632,56.1666667 L16.8947368,56.1666667 L16.8947368,44.8333333 L22.1052632,44.8333333 L22.1052632,56.1666667 Z" id="Shape" fill="#F7941D"></path>
                            <path d="M36.5,24 C32.9159565,24 30,26.9159565 30,30.5 C30,34.0840435 32.9159565,37 36.5,37 C40.0840435,37 43,34.0840435 43,30.5 C43,26.9159565 40.0840435,24 36.5,24 Z M36.5,34.173913 C34.4741196,34.173913 32.826087,32.5257391 32.826087,30.5 C32.826087,28.4742609 34.4741196,26.826087 36.5,26.826087 C38.5258804,26.826087 40.173913,28.4742609 40.173913,30.5 C40.173913,32.5257391 38.5258804,34.173913 36.5,34.173913 Z" id="Shape" fill="#1F2A47"></path>
                            <path d="M34.56035,56.4395 C34.2815,56.1605 33.89435,56 33.5,56 C33.1055,56 32.7185,56.1605 32.4395,56.4395 C32.1605,56.7185 32,57.1055 32,57.5 C32,57.8945 32.16035,58.2815 32.4395,58.5605 C32.71865,58.8395 33.1055,59 33.5,59 C33.8945,59 34.2815,58.8395 34.56035,58.5605 C34.83935,58.2815 35,57.8945 35,57.5 C35,57.1055 34.8395,56.7185 34.56035,56.4395 Z" id="Path" fill="#005CA9"></path>
                            <path d="M19.56035,17.4395 C19.2815,17.1605 18.8945,17 18.5,17 C18.1055,17 17.7185,17.1605 17.4395,17.4395 C17.1605,17.7185 17,18.1055 17,18.5 C17,18.8945 17.16035,19.2815 17.4395,19.5605 C17.71865,19.8395 18.1055,20 18.5,20 C18.8945,20 19.2815,19.8395 19.56035,19.5605 C19.83935,19.2815 20,18.8945 20,18.5 C20,18.1055 19.8395,17.7185 19.56035,17.4395 Z" id="Path" fill="#005CA9"></path>
                            <path d="M64.56035,52.4395 C64.2815,52.16065 63.89435,52 63.5,52 C63.1055,52 62.7185,52.1605 62.4395,52.4395 C62.1605,52.72 62,53.1055 62,53.5 C62,53.8945 62.16035,54.2815 62.4395,54.562 C62.7185,54.841 63.1055,55 63.5,55 C63.8945,55 64.2815,54.841 64.56035,54.562 C64.83935,54.2815 65,53.896 65,53.5 C65,53.1055 64.8395,52.7185 64.56035,52.4395 Z" id="Path" fill="#005CA9"></path>
                        </g>
                    </g>
                </g>
            </g>
        </g>
    </g>
</svg>