<?xml version="1.0" encoding="UTF-8"?>
<svg width="15px" height="15px" viewBox="0 0 15 15" version="1.1" xmlns="http://www.w3.org/2000/svg" xmlns:xlink="http://www.w3.org/1999/xlink">
    <!-- Generator: Sketch 54.1 (76490) - https://sketchapp.com -->
    <title>iconfinder_38-instagram_1161953</title>
    <desc>Created with Sketch.</desc>
    <g id="Interface" stroke="none" stroke-width="1" fill="none" fill-rule="evenodd">
        <g id="Home-/-Web" transform="translate(-186.000000, -19.000000)" fill="#FFFFFF" fill-rule="nonzero">
            <g id="Hero">
                <g id="Menu" transform="translate(165.000000, 0.000000)">
                    <g id="Subheader">
                        <g id="Social" transform="translate(0.000000, 17.000000)">
                            <g id="iconfinder_38-instagram_1161953" transform="translate(21.000000, 2.000000)">
                                <path d="M7.41176471,3.73529412 C5.35294118,3.73529412 3.64705882,5.41176471 3.64705882,7.5 C3.64705882,9.58823529 5.32352941,11.2647059 7.41176471,11.2647059 C9.5,11.2647059 11.1764706,9.55882353 11.1764706,7.5 C11.1764706,5.44117647 9.47058824,3.73529412 7.41176471,3.73529412 Z M7.41176471,9.91176471 C6.08823529,9.91176471 5,8.82352941 5,7.5 C5,6.17647059 6.08823529,5.08823529 7.41176471,5.08823529 C8.73529412,5.08823529 9.82352941,6.17647059 9.82352941,7.5 C9.82352941,8.82352941 8.73529412,9.91176471 7.41176471,9.91176471 Z" id="Shape"></path>
                                <circle id="Oval" cx="11.3235294" cy="3.64705882" r="1"></circle>
                                <path d="M13.5294118,1.44117647 C12.7647059,0.647058824 11.6764706,0.235294118 10.4411765,0.235294118 L4.38235294,0.235294118 C1.82352941,0.235294118 0.117647059,1.94117647 0.117647059,4.5 L0.117647059,10.5294118 C0.117647059,11.7941176 0.529411765,12.8823529 1.35294118,13.6764706 C2.14705882,14.4411765 3.20588235,14.8235294 4.41176471,14.8235294 L10.4117647,14.8235294 C11.6764706,14.8235294 12.7352941,14.4117647 13.5,13.6764706 C14.2941176,12.9117647 14.7058824,11.8235294 14.7058824,10.5588235 L14.7058824,4.5 C14.7058824,3.26470588 14.2941176,2.20588235 13.5294118,1.44117647 Z M13.4117647,10.5588235 C13.4117647,11.4705882 13.0882353,12.2058824 12.5588235,12.7058824 C12.0294118,13.2058824 11.2941176,13.4705882 10.4117647,13.4705882 L4.41176471,13.4705882 C3.52941176,13.4705882 2.79411765,13.2058824 2.26470588,12.7058824 C1.73529412,12.1764706 1.47058824,11.4411765 1.47058824,10.5294118 L1.47058824,4.5 C1.47058824,3.61764706 1.73529412,2.88235294 2.26470588,2.35294118 C2.76470588,1.85294118 3.52941176,1.58823529 4.41176471,1.58823529 L10.4705882,1.58823529 C11.3529412,1.58823529 12.0882353,1.85294118 12.6176471,2.38235294 C13.1176471,2.91176471 13.4117647,3.64705882 13.4117647,4.5 L13.4117647,10.5588235 L13.4117647,10.5588235 Z" id="Shape"></path>
                            </g>
                        </g>
                    </g>
                </g>
            </g>
        </g>
    </g>
</svg>