<?xml version="1.0" encoding="UTF-8"?>
<svg width="106px" height="143px" viewBox="0 0 106 143" version="1.1" xmlns="http://www.w3.org/2000/svg" xmlns:xlink="http://www.w3.org/1999/xlink">
    <!-- Generator: Sketch 54.1 (76490) - https://sketchapp.com -->
    <title>Group 4</title>
    <desc>Created with Sketch.</desc>
    <g id="Interface" stroke="none" stroke-width="1" fill="none" fill-rule="evenodd">
        <g id="Home-/-Web" transform="translate(-236.000000, -2234.000000)">
            <g id="Section-Eixos" transform="translate(150.000000, 2040.000000)">
                <g id="Box-1" transform="translate(0.000000, 169.000000)">
                    <g id="Group-4" transform="translate(86.000000, 0.000000)">
                        <text id="Title" font-family="Arial-BoldMT, Arial" font-size="138" font-weight="bold" fill="#E5ECED">
                            <tspan x="51.1254883" y="125">1</tspan>
                        </text>
                        <g id="ico" transform="translate(0.000000, 95.000000)" fill-rule="nonzero">
                            <path d="M25.2647796,52.4668355 C25.1642599,52.4377016 25.0613767,52.4212961 24.9577983,52.415639 C26.4807479,50.7873944 27.4186535,48.5877863 27.4186535,46.1682597 L27.4186535,38.7276641 C27.4186535,38.6596379 27.4122581,38.5933088 27.403221,38.5279697 C27.4123971,38.3936144 27.4186535,38.2584106 27.4186535,38.1217925 L27.4186535,33.4142662 C27.4186535,32.633167 26.7962101,32 26.0283399,32 L16.7030891,32 C12.7761482,32 9.58148553,35.2498422 9.58148553,39.2442955 L9.58148553,46.1682597 C9.58148553,48.5877863 10.5192521,50.7873944 12.0423407,52.415639 C11.9389014,52.4212961 11.8360181,52.4377016 11.7356375,52.4668355 C5.16543229,53.0719999 0,58.7051635 0,65.5434231 L0,71.5857338 C0,72.366833 0.62244342,73 1.39031365,73 L35.6096864,73 C36.3775566,73 37,72.366833 37,71.5857338 L37,65.5434231 C37,58.7053049 31.8348458,53.0721414 25.2647796,52.4668355 Z M12.3621128,41.0377264 L12.3621128,39.2441541 C12.3621128,36.8093535 14.3095252,34.8283909 16.7030891,34.8283909 L24.6380262,34.8283909 L24.6380262,38.121651 C24.6380262,39.7795952 23.3120841,41.1283809 21.6822194,41.1283809 L12.3621128,41.1283809 L12.3621128,41.0377264 Z M12.3621128,43.9569132 L21.6822194,43.9569132 C22.7627712,43.9569132 23.7742243,43.6511488 24.6380262,43.1205162 L24.6380262,46.1681183 C24.6380262,49.6108664 21.88451,52.4118205 18.5000695,52.4118205 C15.115629,52.4118205 12.3621128,49.6108664 12.3621128,46.1681183 L12.3621128,43.9569132 Z M21.5260872,55.2404942 L18.5000695,58.3187859 L15.4740519,55.2404942 L21.5260872,55.2404942 Z M34.2195117,70.1714677 L34.2195117,70.1714677 L2.78062729,70.1714677 L2.78062729,67.3429354 L8.55042893,67.3429354 C9.31829916,67.3429354 9.94074258,66.7097684 9.94074258,65.9286692 C9.94074258,65.14757 9.31829916,64.5144031 8.55042893,64.5144031 L2.83137374,64.5144031 C3.2983801,59.7460633 6.9753426,55.9274033 11.6258027,55.3260573 L17.5169787,61.3187273 C17.7776625,61.5839022 18.1313583,61.7329659 18.5000695,61.7329659 C18.8687807,61.7329659 19.2224765,61.5839022 19.4831603,61.3187273 L25.3743363,55.3260573 C30.3549959,55.9699727 34.2195117,60.3048399 34.2195117,65.5434231 L34.2195117,70.1714677 Z" id="Shape" fill="#1F2A47"></path>
                            <path d="M61.2651018,20.4669769 C61.1645825,20.437843 61.0615606,20.4214375 60.9578436,20.4157805 C62.4807874,18.7875358 63.4185505,16.5879277 63.4185505,14.1684012 L63.4185505,6.72766408 C63.4185505,6.65963788 63.4121551,6.5933088 63.403118,6.5279697 C63.4122941,6.39361442 63.4185505,6.25841057 63.4185505,6.12179246 L63.4185505,1.41426615 C63.4185505,0.633166956 62.7961094,0 62.028242,0 L52.7030264,0 C48.7761002,0 45.5814495,3.24984219 45.5814495,7.24429551 L45.5814495,14.1682597 C45.5814495,16.5877863 46.5192126,18.7873944 48.0421564,20.415639 C47.9385784,20.4212961 47.8354175,20.4377016 47.7348982,20.4668355 C41.1649958,21.0722828 36,26.7054463 36,33.5434231 L36,39.5855924 C36,40.3666916 36.6224411,40.9998586 37.3903084,40.9998586 L48.57673,40.9998586 C49.3445973,40.9998586 49.9670384,40.3666916 49.9670384,39.5855924 C49.9670384,38.8044932 49.3445973,38.1713263 48.57673,38.1713263 L38.7806168,38.1713263 L38.7806168,33.5435646 C38.7806168,28.3049813 42.6449791,23.9701141 47.62562,23.3261988 L53.5167739,29.3188687 C53.7883011,29.5950749 54.144081,29.7331073 54.499861,29.7331073 C54.8556409,29.7331073 55.2115599,29.5950749 55.4829481,29.3188687 L61.3741019,23.3261988 C66.3550209,23.9702556 70.2193832,28.3049813 70.2193832,33.5435646 L70.2193832,38.1714677 L59.9773981,38.1714677 C59.2095308,38.1714677 58.5870897,38.8046347 58.5870897,39.5857338 C58.5870897,40.366833 59.2095308,41 59.9773981,41 L71.6096916,41 C72.3775589,41 73,40.366833 73,39.5857338 L73,33.5435646 C73,26.7055877 67.8348652,21.0724242 61.2651018,20.4669769 Z M54.500139,26.3187859 L51.4741327,23.2406357 L57.5261453,23.2406357 L54.500139,26.3187859 Z M60.6380727,14.1682597 C60.6380727,17.6110078 57.8845668,20.4119619 54.500139,20.4119619 C51.1157112,20.4119619 48.3622054,17.6111492 48.3622054,14.1684012 L48.3622054,11.9570546 L57.6822769,11.9570546 C58.7628247,11.9570546 59.774274,11.6511488 60.6380727,11.1206576 L60.6380727,14.1682597 L60.6380727,14.1682597 Z M60.6380727,6.12179246 C60.6380727,7.77973667 59.3121355,9.1285223 57.6822769,9.1285223 L48.3622054,9.1285223 L48.3622054,9.03786784 L48.3622054,7.24429551 C48.3622054,4.8094949 50.3096104,2.8285323 52.7031654,2.8285323 L60.6380727,2.8285323 L60.6380727,6.12179246 Z" id="Shape" fill="#1F2A47"></path>
                            <path d="M54.5605,38.4395 C54.2815,38.1605 53.8945,38 53.5,38 C53.104,38 52.7185,38.1605 52.4395,38.4395 C52.159,38.7185 52,39.1055 52,39.5 C52,39.896 52.159,40.2815 52.4395,40.5605 C52.7185,40.841 53.104,41 53.5,41 C53.8945,41 54.2815,40.841 54.5605,40.5605 C54.8395,40.2815 55,39.896 55,39.5 C55,39.1055 54.8395,38.7185 54.5605,38.4395 Z" id="Path" fill="#005CA9"></path>
                            <path d="M65.9716456,46 L48.3188091,46 C45.4127252,46 42.8785817,47.7818564 41.8153323,50.4521277 L36.4057485,50.4521277 C35.8372952,50.4521277 35.324647,50.8021223 35.1070492,51.3386755 C34.8894513,51.8752287 35.0097768,52.4930691 35.4116581,52.9038138 L41.2903142,58.9100213 L41.2903142,65.8191489 C41.2903142,69.7786702 44.443234,73 48.3186686,73 L65.9716456,73 C69.8470802,73 73,69.7786702 73,65.8191489 L73,53.1808511 C73,49.2213298 69.8470802,46 65.9716456,46 Z M70.1886583,65.8191489 C70.1886583,68.1948617 68.2969064,70.1276596 65.9716456,70.1276596 L48.3188091,70.1276596 C45.9935484,70.1276596 44.1017965,68.1948617 44.1017965,65.8191489 L44.1017965,58.3151596 C44.1017965,57.9342872 43.9536388,57.5689255 43.6900755,57.2996436 L39.7993191,53.3244681 L42.8407692,53.3244681 C43.4956712,53.3244681 44.0638434,52.8624521 44.210736,52.2102872 C44.6532412,50.2450319 46.3424359,48.8723404 48.3188091,48.8723404 L65.9716456,48.8723404 C68.2969064,48.8723404 70.1886583,50.8051383 70.1886583,53.1808511 L70.1886583,65.8191489 Z" id="Shape" fill="#F7941D"></path>
                            <path d="M62.5992707,55.3820957 C62.0651018,54.8726348 61.1987193,54.8726348 60.6644136,55.3820957 L57.0271668,58.8502136 L55.3358601,57.2375512 C54.8015543,56.7280902 53.9351718,56.7280902 53.4007293,57.2375512 C52.8664236,57.7470121 52.8664236,58.5731086 53.4007293,59.0827 L56.059533,61.6178717 C56.3267543,61.8726674 56.6768921,62 57.02703,62 C57.3771678,62 57.7274425,61.8726674 57.994527,61.6178717 L62.5992707,57.2272446 C63.1335764,56.7177836 63.1335764,55.8916871 62.5992707,55.3820957 Z" id="Path" fill="#005CA9"></path>
                            <path d="M15.5605,64.4395 C15.2815,64.1605 14.8945,64 14.5,64 C14.1055,64 13.7185,64.1605 13.4395,64.4395 C13.1605,64.7185 13,65.1055 13,65.5 C13,65.8945 13.1605,66.2815 13.4395,66.5605 C13.7185,66.8395 14.1055,67 14.5,67 C14.8945,67 15.2815,66.8395 15.5605,66.5605 C15.8395,66.2815 16,65.8945 16,65.5 C16,65.1055 15.8395,64.7185 15.5605,64.4395 Z" id="Path" fill="#005CA9"></path>
                        </g>
                    </g>
                </g>
            </g>
        </g>
    </g>
</svg>