<?xml version="1.0" encoding="UTF-8"?>
<svg width="65px" height="73px" viewBox="0 0 65 73" version="1.1" xmlns="http://www.w3.org/2000/svg" xmlns:xlink="http://www.w3.org/1999/xlink">
    <!-- Generator: Sketch 54.1 (76490) - https://sketchapp.com -->
    <title>ico / excelencia</title>
    <desc>Created with Sketch.</desc>
    <g id="Interface" stroke="none" stroke-width="1" fill="none" fill-rule="evenodd">
        <g id="Home-/-Web" transform="translate(-465.000000, -1542.000000)">
            <g id="Section-Valores" transform="translate(0.000000, 1338.000000)">
                <g id="ico-/-excelencia" transform="translate(465.000000, 204.000000)">
                    <g id="medal">
                        <path d="M43.9298956,22.2955829 C43.7617197,21.7787152 43.3143461,21.4022014 42.7762404,21.3241002 L36.5603051,20.4231513 L33.7790445,14.7955764 C33.53814,14.3084072 33.0416139,14 32.4979357,14 L32.4976499,14 C31.9536859,14.0001428 31.4571598,14.3088356 31.2165411,14.7962903 L28.438424,20.425293 L22.2229173,21.3295258 C21.6846688,21.4077699 21.2377238,21.784712 21.0698337,22.3015797 C20.9019436,22.8184473 21.0422569,23.3858595 21.4317619,23.7650861 L25.9306457,28.1448969 L24.8705803,34.3311743 C24.7787051,34.8668891 24.9993199,35.4081723 25.4394063,35.7275736 C25.6883124,35.9081917 25.9829417,36 26.2789998,36 C26.5064731,36 26.7349465,35.9457432 26.9441305,35.8358017 L32.5027938,32.9136434 L38.0630289,35.8328033 C38.5444091,36.0856687 39.1278095,36.0434055 39.567753,35.7237185 C40.0076966,35.4041744 40.2278827,34.8627484 40.1358646,34.3271764 L39.0725129,28.1414701 L43.5691104,23.7593749 C43.9581869,23.3798627 44.0980715,22.8124505 43.9298956,22.2955829 Z M36.539301,26.6212796 C36.2026634,26.9493906 36.0490618,27.4219961 36.1286489,27.885178 L36.8290722,31.9594372 L33.1667814,30.0367467 C32.7505568,29.8181488 32.2531733,29.8182916 31.8369487,30.0370322 L28.1756581,31.9617217 L28.8739381,27.8870342 C28.9533823,27.4238522 28.7994949,26.9512467 28.4627145,26.6232785 L25.499561,23.7385288 L29.5933651,23.1429888 C30.0587423,23.0753105 30.4609641,22.7830376 30.669005,22.3616905 L32.498793,18.6542361 L34.3307243,22.3608338 C34.5390509,22.7821809 34.9414157,23.0741683 35.4067928,23.141561 L39.5008827,23.7349593 L36.539301,26.6212796 Z" id="Shape" fill="#F7941D" fill-rule="nonzero"></path>
                        <path d="M64.8087155,62.6444901 L52.9260504,42.145913 C56.5144554,37.7034377 58.6643932,32.071141 58.6643932,25.9493708 C58.6643932,11.6408592 46.9270699,0 32.4999882,0 C18.0729066,0 6.33558324,11.6408592 6.33558324,25.9493708 C6.33558324,32.071141 8.48537726,37.7034377 12.073926,42.145913 L0.191260885,62.6444901 C-0.0815964816,63.1152858 -0.0611824953,63.6990041 0.244020976,64.1499813 C0.549224447,64.600816 1.08674483,64.8406338 1.62886555,64.7683463 L10.9032846,63.5331848 L14.4619311,72.1165808 C14.6703838,72.6191716 15.1488187,72.9606482 15.6956835,72.9968633 C15.7278858,72.9990019 15.7599444,73 15.7918592,73 C16.3029277,73 16.7786311,72.730098 17.0365373,72.2871052 L29.032342,51.6805958 C29.0342109,51.677459 29.0355047,51.6741797 29.0373736,51.6709004 C30.1707811,51.8201806 31.3263278,51.898599 32.5002757,51.898599 C33.6742237,51.898599 34.8297703,51.8201806 35.9631779,51.6709004 C35.9650467,51.6740372 35.9663406,51.6773165 35.9682095,51.6805958 L47.9640141,72.2871052 C48.2219204,72.730098 48.6977675,73 49.2086922,73 C49.240607,73 49.2726656,72.9990019 49.304868,72.9968633 C49.8517328,72.9606482 50.3301676,72.6191716 50.5386203,72.1165808 L54.0974107,63.5331848 L63.3718297,64.7683463 C63.9151005,64.8406338 64.4514708,64.600816 64.7566742,64.1499813 C65.0610151,63.6990041 65.0815729,63.1152858 64.8087155,62.6444901 Z M16.00865,68.3493595 L13.4180864,62.1012643 L15.7428369,58.3387481 C16.1577296,57.6673438 15.9452516,56.7894851 15.2682836,56.3781448 C14.5913156,55.9668045 13.7061824,56.1773936 13.2914334,56.8487979 L10.9422436,60.6508085 L4.13806074,61.5568978 L14.0972108,44.3767034 C17.3594234,47.5814507 21.4646472,49.942986 26.0500311,51.1001568 L16.00865,68.3493595 Z M32.4998444,49.0471624 C19.6581532,49.0471624 9.21064881,38.6855216 9.21064881,25.9493708 C9.21064881,13.21322 19.6581532,2.85157921 32.4998444,2.85157921 C45.3415357,2.85157921 55.7890401,13.21322 55.7890401,25.9493708 C55.7890401,38.6855216 45.3415357,49.0471624 32.4998444,49.0471624 Z M54.057589,60.6508085 L51.7083992,56.8487979 C51.2936503,56.1773936 50.4085171,55.9665193 49.731549,56.3781448 C49.054581,56.7896277 48.842103,57.6673438 49.2569957,58.3387481 L51.5817463,62.1012643 L48.9911826,68.3493595 L38.9498015,51.1001568 C43.5351854,49.942986 47.6405531,47.5814507 50.9026218,44.3767034 L60.8617719,61.5568978 L54.057589,60.6508085 Z" id="Shape" fill="#1F2A47" fill-rule="nonzero"></path>
                        <path d="M32.6873387,7 C29.5437591,7 26.4422986,7.8103818 23.718079,9.34379549 C23.0400879,9.72531739 22.7997694,10.5844461 23.1812362,11.262535 C23.5627031,11.940624 24.4217077,12.1812589 25.0996988,11.7994552 C27.403009,10.5030134 30.0267908,9.81773923 32.6873387,9.81773923 C41.231463,9.81773923 48.1826675,16.7699472 48.1826675,25.315305 C48.1826675,27.6503655 47.6768154,29.8939904 46.679198,31.9837667 C46.3440763,32.6859473 46.6414457,33.5269016 47.343525,33.8622126 C47.5394705,33.9557615 47.745981,34 47.9495332,34 C48.4752475,34 48.9799726,33.7039965 49.2216997,33.1977896 C50.4015986,30.7259279 51,28.0738717 51,25.315305 C51,15.2162458 42.785081,7 32.6873387,7 Z" id="Path" fill="#1F2A47" fill-rule="nonzero"></path>
                        <path d="M45.5501474,36.4183074 C44.9628176,35.8485158 44.0245422,35.8625902 43.4545521,36.4497156 L43.421651,36.4834942 C42.8498824,37.0688418 42.8609977,38.0069388 43.4465491,38.5785082 C43.7348046,38.8598484 44.1084253,39 44.4817495,39 C44.86693,39 45.2519623,38.8508112 45.5422926,38.5534706 L45.5814183,38.5133215 C46.1515566,37.926196 46.1374773,36.9882473 45.5501474,36.4183074 Z" id="Path" fill="#005CA9" fill-rule="nonzero"></path>
                        <path d="M41.8239596,40.779069 C41.4467743,40.0905968 40.585971,39.8399456 39.9013762,40.2194095 C37.6183084,41.4846213 35.0241513,42.153309 32.399423,42.153309 C23.8148844,42.153309 16.8308002,35.1296684 16.8308002,26.4965088 C16.8308002,24.2349551 17.2994158,22.0538205 18.2234843,20.0137394 C18.5475947,19.298366 18.2335331,18.4543221 17.5221886,18.128376 C16.8108441,17.8025722 15.9715538,18.1182703 15.6474434,18.8336437 C14.554243,21.2467836 14,23.8248893 14,26.4965088 C14,36.6993338 22.2539177,45 32.3992815,45 C35.5004096,45 38.5670037,44.2090469 41.2674521,42.7125415 C41.9520469,42.3330776 42.2012864,41.4675412 41.8239596,40.779069 Z" id="Path" fill="#1F2A47" fill-rule="nonzero"></path>
                        <path d="M21.5271345,13.3981535 C20.9269342,12.8393746 19.9870511,12.8729162 19.4279929,13.4725089 L19.3950198,13.5079799 C18.838041,14.1096504 18.8744303,15.048666 19.4765615,15.6052187 C19.7621802,15.8693956 20.1238451,16 20.4847673,16 C20.8843067,16 21.2826579,15.8398613 21.575406,15.5237394 L21.6015468,15.4956891 C22.160605,14.895948 22.1273348,13.9567839 21.5271345,13.3981535 Z" id="Path" fill="#005CA9" fill-rule="nonzero"></path>
                    </g>
                </g>
            </g>
        </g>
    </g>
</svg>