<?xml version="1.0" encoding="UTF-8"?>
<svg width="81px" height="73px" viewBox="0 0 81 73" version="1.1" xmlns="http://www.w3.org/2000/svg" xmlns:xlink="http://www.w3.org/1999/xlink">
    <!-- Generator: Sketch 54.1 (76490) - https://sketchapp.com -->
    <title>diploma</title>
    <desc>Created with Sketch.</desc>
    <g id="Interface" stroke="none" stroke-width="1" fill="none" fill-rule="evenodd">
        <g id="Home-/-Web" transform="translate(-414.000000, -1450.000000)" fill-rule="nonzero">
            <g id="Section-Valores" transform="translate(0.000000, 1338.000000)">
                <g id="ico-gestor-1" transform="translate(414.000000, 112.000000)">
                    <g id="diploma" transform="translate(0.000000, 0.000000)">
                        <path d="M75.855846,0 L4.35016258,0 C1.95142331,0 5.68434189e-14,1.95142331 5.68434189e-14,4.35016258 L5.68434189e-14,20.1010679 C5.68434189e-14,20.7558259 0.53114941,21.2875872 1.18651929,21.2875872 C1.841889,21.2875872 2.37303857,20.7558259 2.37303857,20.1010679 L2.37303857,4.35016258 C2.37303857,3.26032725 3.26032725,2.37303857 4.35016258,2.37303857 L75.855846,2.37303857 C76.9462932,2.37303857 77.83297,3.26032725 77.83297,4.35016258 L77.83297,51.8097087 C77.83297,52.9001559 76.9456813,53.7868327 75.855846,53.7868327 L51.2914096,53.7868327 C51.3715716,53.2446687 51.4137943,52.6902662 51.4137943,52.1254611 C51.4137943,51.5612677 51.3715716,51.0068653 51.2914096,50.4647012 L66.6800563,50.4647012 C67.3354262,50.4647012 67.8665756,49.9335518 67.8665756,49.2781819 C67.8665756,46.2687433 70.3148806,43.8204383 73.3243193,43.8204383 C73.9796891,43.8204383 74.5108385,43.2892889 74.5108385,42.633919 L74.5108385,22.4508533 C74.5108385,21.7954834 73.9796891,21.2643342 73.3243193,21.2643342 C72.6689495,21.2643342 72.1378001,21.7954834 72.1378001,22.4508533 L72.1378001,41.5373525 C68.7679386,42.0519799 66.0975054,44.7218012 65.5834898,48.0916628 L50.6678597,48.0916628 C49.0395319,43.8418556 44.9188406,40.8146711 40.1030043,40.8146711 C35.287168,40.8146711 31.1664767,43.8418556 29.5381488,48.0916628 L14.6225188,48.0916628 C14.1085032,44.7218012 11.43807,42.0519799 8.06820845,41.5373525 L8.06820845,14.6225188 C11.43807,14.1078913 14.1085032,11.43807 14.6225188,8.06820845 L65.5834898,8.06820845 C66.0981172,11.43807 68.7679386,14.1078913 72.1378001,14.6225188 L72.1378001,16.9172312 C72.1378001,17.5726009 72.6695614,18.1037503 73.3243193,18.1037503 C73.9796891,18.1037503 74.5108385,17.5726009 74.5108385,16.9172312 L74.5108385,13.5259523 C74.5108385,12.8705824 73.9796891,12.339433 73.3243193,12.339433 C70.3148806,12.339433 67.8665756,9.89112795 67.8665756,6.88168932 C67.8665756,6.22631945 67.3354262,5.69517004 66.6800563,5.69517004 L13.5259523,5.69517004 C12.8705824,5.69517004 12.339433,6.22631945 12.339433,6.88168932 C12.339433,9.89112795 9.89112795,12.339433 6.88168932,12.339433 C6.22631945,12.339433 5.69517004,12.8705824 5.69517004,13.5259523 L5.69517004,42.633919 C5.69517004,43.2892889 6.22631945,43.8204383 6.88168932,43.8204383 C9.89112795,43.8204383 12.339433,46.2687433 12.339433,49.2781819 C12.339433,49.9335518 12.8705824,50.4647012 13.5259523,50.4647012 L28.914599,50.4647012 C28.834437,51.0074772 28.7922143,51.5618798 28.7922143,52.126073 C28.7922143,52.6902662 28.834437,53.2446687 28.914599,53.7874447 L4.35016258,53.7874447 C3.25971537,53.7874447 2.37303857,52.9001559 2.37303857,51.8097087 L2.37303857,25.6181682 C2.37303857,24.9627983 1.841889,24.4316491 1.18651929,24.4316491 C0.53114941,24.4316491 6.12957467e-14,24.9627983 6.12957467e-14,25.6181682 L6.12957467e-14,51.8097087 C6.12957467e-14,54.2084479 1.95142331,56.1598712 4.35016258,56.1598712 L29.5381488,56.1598712 C29.9383466,57.2050362 30.4896894,58.1755466 31.1646409,59.0457014 L31.1646409,71.7424976 C31.1646409,72.1378001 31.3616802,72.5067898 31.6896711,72.7270821 C32.017662,72.9473745 32.4337698,72.9902092 32.7996999,72.8408999 L40.1030043,69.8596097 L47.4063087,72.8408999 C47.5507226,72.8996446 47.7030915,72.9290169 47.8542366,72.9290169 C48.0867674,72.9290169 48.3180743,72.8604815 48.5163375,72.7270821 C48.8443284,72.5067898 49.0413677,72.1378001 49.0413677,71.7424976 L49.0413677,68.3487712 C49.0413677,67.6934013 48.5096063,67.1622519 47.8548484,67.1622519 C47.1994786,67.1622519 46.6683292,67.6934013 46.6683292,68.3487712 L46.6683292,69.9764871 L40.551544,67.4798401 C40.2639402,67.3629627 39.9420684,67.3629627 39.6544646,67.4798401 L33.5376794,69.9764871 L33.5376794,61.3281754 C35.3905831,62.6536011 37.6565349,63.4368629 40.1030043,63.4368629 C42.5494737,63.4368629 44.8154255,62.6536011 46.6683292,61.3281754 L46.6683292,62.8041342 C46.6683292,63.4595041 47.1994786,63.9906535 47.8548484,63.9906535 C48.5096063,63.9906535 49.0413677,63.4595041 49.0413677,62.8041342 L49.0413677,59.0457014 C49.7163192,58.1755466 50.267662,57.2050362 50.6678597,56.1598712 L75.855846,56.1598712 C78.2545853,56.1598712 80.2060086,54.2084479 80.2060086,51.8097087 L80.2060086,4.35016258 C80.2060086,1.95142331 78.2545853,3.11662951e-14 75.855846,3.11662951e-14 L75.855846,0 Z M40.1030043,61.0638245 C35.1745741,61.0638245 31.1646409,57.0545032 31.1646409,52.126073 C31.1646409,47.1976428 35.1745741,43.1877095 40.1030043,43.1877095 C45.0314345,43.1877095 49.0413677,47.1976428 49.0413677,52.126073 C49.0413677,57.0545032 45.0314345,61.0638245 40.1030043,61.0638245 L40.1030043,61.0638245 Z" id="Shape" fill="#1F2A47"></path>
                        <path d="M50.5442513,15.6615644 C51.1996212,15.6615644 51.7307704,15.1304152 51.7307704,14.4750453 C51.7307704,13.8196754 51.1996212,13.288526 50.5442513,13.288526 L29.6617573,13.288526 C29.0063874,13.288526 28.4752381,13.8196754 28.4752381,14.4750453 C28.4752381,15.1304152 29.0063874,15.6615644 29.6617573,15.6615644 L50.5442513,15.6615644 Z" id="Path" fill="#005CA9"></path>
                        <path d="M58.4539716,19.6164247 L21.752037,19.6164247 C21.0966671,19.6164247 20.5655177,20.1475741 20.5655177,20.8029439 C20.5655177,21.4583138 21.0966671,21.9894632 21.752037,21.9894632 L58.4539716,21.9894632 C59.1093415,21.9894632 59.6404909,21.4583138 59.6404909,20.8029439 C59.6404909,20.1475741 59.1093415,19.6164247 58.4539716,19.6164247 Z" id="Path" fill="#005CA9"></path>
                        <path d="M58.4539716,25.9443234 L21.752037,25.9443234 C21.0966671,25.9443234 20.5655177,26.4754727 20.5655177,27.1308426 C20.5655177,27.7862124 21.0966671,28.3173619 21.752037,28.3173619 L58.4539716,28.3173619 C59.1093415,28.3173619 59.6404909,27.7862124 59.6404909,27.1308426 C59.6404909,26.4754727 59.1093415,25.9443234 58.4539716,25.9443234 Z" id="Path" fill="#005CA9"></path>
                        <path d="M58.4539716,33.221315 L52.7588016,33.221315 C52.1034318,33.221315 51.5722824,33.7524645 51.5722824,34.4078343 C51.5722824,35.0632041 52.1034318,35.5943535 52.7588016,35.5943535 L58.4539716,35.5943535 C59.1093415,35.5943535 59.6404909,35.0632041 59.6404909,34.4078343 C59.6404909,33.7524645 59.1093415,33.221315 58.4539716,33.221315 L58.4539716,33.221315 Z" id="Path" fill="#005CA9"></path>
                        <path d="M21.752037,33.221315 C21.0966671,33.221315 20.5655177,33.7524645 20.5655177,34.4078343 C20.5655177,35.0632041 21.0966671,35.5943535 21.752037,35.5943535 L27.447207,35.5943535 C28.1025767,35.5943535 28.6337262,35.0632041 28.6337262,34.4078343 C28.6337262,33.7524645 28.1025767,33.221315 27.447207,33.221315 L21.752037,33.221315 Z" id="Path" fill="#005CA9"></path>
                        <path d="M40.1030043,45.8771124 C36.6572642,45.8771124 33.8540437,48.6803329 33.8540437,52.126073 C33.8540437,55.571813 36.6572642,58.3750335 40.1030043,58.3750335 C43.5487443,58.3750335 46.3519649,55.571813 46.3519649,52.126073 C46.3519649,48.6803329 43.5487443,45.8771124 40.1030043,45.8771124 Z M40.1030043,56.0019951 C37.9655563,56.0019951 36.2270821,54.2629091 36.2270821,52.126073 C36.2270821,49.988625 37.9655563,48.2501508 40.1030043,48.2501508 C42.2404523,48.2501508 43.9789264,49.988625 43.9789264,52.126073 C43.9789264,54.2629091 42.2404523,56.0019951 40.1030043,56.0019951 Z" id="Shape" fill="#F7941D"></path>
                        <path d="M36.069206,34.4078343 C36.069206,36.6321754 37.8786631,38.4416325 40.1030043,38.4416325 C42.3273455,38.4416325 44.1368026,36.6321754 44.1368026,34.4078343 C44.1368026,32.1834931 42.3273455,30.374036 40.1030043,30.374036 C37.8786631,30.374036 36.069206,32.1834931 36.069206,34.4078343 Z M41.764376,34.4078343 C41.764376,35.3238835 41.0190534,36.069206 40.1030043,36.069206 C39.1869552,36.069206 38.4416325,35.3238835 38.4416325,34.4078343 C38.4416325,33.4917851 39.1869552,32.7464625 40.1030043,32.7464625 C41.0190534,32.7464625 41.764376,33.4917851 41.764376,34.4078343 Z" id="Shape" fill="#F7941D"></path>
                    </g>
                </g>
            </g>
        </g>
    </g>
</svg>