<?xml version="1.0" encoding="UTF-8"?>
<svg width="72px" height="73px" viewBox="0 0 72 73" version="1.1" xmlns="http://www.w3.org/2000/svg" xmlns:xlink="http://www.w3.org/1999/xlink">
    <!-- Generator: Sketch 54.1 (76490) - https://sketchapp.com -->
    <title>love</title>
    <desc>Created with Sketch.</desc>
    <g id="Interface" stroke="none" stroke-width="1" fill="none" fill-rule="evenodd">
        <g id="Home-/-Web" transform="translate(-473.000000, -1542.000000)" fill-rule="nonzero">
            <g id="Section-Valores" transform="translate(0.000000, 1338.000000)">
                <g id="love" transform="translate(473.000000, 204.000000)">
                    <path d="M57.7891073,0 L14.2108927,0 C11.142348,0 8.22077192,0.956271484 5.76163043,2.76516016 C5.2821165,3.11789844 5.18121908,3.79001172 5.53629764,4.26636523 C5.8913762,4.74271875 6.56794868,4.84266602 7.04746261,4.49021289 C9.13171922,2.95692773 11.6088012,2.14637109 14.2108927,2.14637109 L57.7889638,2.14637109 C64.4335543,2.14637109 69.8392451,7.51657617 69.8392451,14.1172305 L69.8392451,42.5108086 C69.8392451,49.1116055 64.4334108,54.481668 57.7889638,54.481668 L39.3699453,54.481668 C38.9248771,54.481668 38.494879,54.6664492 38.1906079,54.988248 L23.3978687,70.6133848 C23.0785276,70.9504395 22.7082355,70.8547695 22.5639938,70.798166 C22.4196086,70.7414199 22.0839058,70.5592051 22.0839058,70.0961113 L22.0839058,56.0902344 C22.0839058,55.2033984 21.357674,54.4819531 20.4649542,54.4819531 L14.2108927,54.4819531 C7.56630214,54.4819531 2.16046789,49.111748 2.16046789,42.5110938 L2.16046789,14.1172305 C2.16046789,11.6888398 2.88799142,9.35098633 4.26453082,7.35660352 C4.60181239,6.86770312 4.47651587,6.19986719 3.98451535,5.86466602 C3.49265834,5.52946484 2.81996101,5.6542207 2.48267943,6.14283594 C0.858561012,8.49623047 0,11.2536914 0,14.1172305 L0,42.5108086 C0,50.2950039 6.37505233,56.6280391 14.2110362,56.6280391 L19.9234379,56.6280391 L19.9234379,70.0961113 C19.9234379,71.2934824 20.6473733,72.3522676 21.7678658,72.7934043 C22.1210785,72.932418 22.487926,73 22.8504678,73 C23.6382715,73 24.4062688,72.6810527 24.9717537,72.0839355 L39.604033,56.6281816 L57.7891073,56.6281816 C65.6249477,56.6281816 72,50.2951465 72,42.5109512 L72,14.1172305 C72,6.33303516 65.6250912,0 57.7891073,0 Z" id="Path" fill="#1F2A47"></path>
                    <path d="M51.2384045,17.8100069 C47.5564416,14.0631876 41.5648658,14.0634744 37.8826209,17.8100069 L36.0336058,19.6916632 C36.0286728,19.6966829 36.0134511,19.7121721 35.9851218,19.7121721 C35.9569335,19.7121721 35.9418527,19.6969697 35.9369197,19.6916632 L34.1172205,17.8401249 C30.4351166,14.0933056 24.4436818,14.093449 20.7615779,17.8401249 C17.079474,21.5869443 17.079474,27.683826 20.7615779,31.4306454 L34.437863,45.3473005 C34.8515271,45.768235 35.4014819,46 35.9863903,46 C36.5712987,46 37.1213944,45.7680916 37.5349176,45.3471571 L45.0506377,37.6980523 C45.4650066,37.2764006 45.4650066,36.5928661 45.0504968,36.1715013 C44.636128,35.7499931 43.9642585,35.7498496 43.5503125,36.1716447 L36.0345924,43.8207495 C36.0296594,43.8257691 36.0144377,43.8409715 35.9863903,43.8409715 C35.958061,43.8409715 35.9429802,43.8257691 35.9380473,43.8204626 L22.2617622,29.9038075 C19.4068456,26.9985704 19.4068456,22.2717696 22.2617622,19.3665325 C25.1166787,16.4612954 29.7619787,16.4615822 32.6168953,19.3665325 L34.4364536,21.2180708 C34.8501177,21.6390053 35.4000725,21.8709137 35.9849809,21.8709137 C36.5700302,21.8709137 37.1198441,21.6391487 37.5336491,21.2182142 L39.3828052,19.3365579 C42.2382856,16.4316077 46.8831627,16.4316077 49.7380793,19.3365579 C52.5929959,22.2416516 52.5929959,26.9684525 49.7380793,29.873833 L46.5708357,33.0974601 C46.1564669,33.5191117 46.1564669,34.2026463 46.5709767,34.6240111 C46.9853455,35.0455193 47.657074,35.0456627 48.0711609,34.6238677 L51.2385454,31.400384 C54.9205083,27.6535647 54.9205083,21.5568263 51.2384045,17.8100069 Z" id="Path" fill="#F7941D"></path>
                </g>
            </g>
        </g>
    </g>
</svg>