<?xml version="1.0" encoding="UTF-8"?>
<svg width="16px" height="15px" viewBox="0 0 16 15" version="1.1" xmlns="http://www.w3.org/2000/svg" xmlns:xlink="http://www.w3.org/1999/xlink">
    <!-- Generator: Sketch 54.1 (76490) - https://sketchapp.com -->
    <title>Shape</title>
    <desc>Created with Sketch.</desc>
    <g id="Interface" stroke="none" stroke-width="1" fill="none" fill-rule="evenodd">
        <g id="Home-/-Web" transform="translate(-216.000000, -19.000000)" fill="#FFFFFF" fill-rule="nonzero">
            <g id="Hero">
                <g id="Menu" transform="translate(165.000000, 0.000000)">
                    <g id="Subheader">
                        <g id="Social" transform="translate(0.000000, 17.000000)">
                            <path d="M59.3367532,8.2303387 C59.3367532,7.87608553 59.3307982,7.52169057 59.3394472,7.16765008 C59.3434172,7.00629723 59.291736,6.94568357 59.1242864,6.94688875 C58.2535765,6.95312735 57.3827957,6.95270199 56.5120857,6.94703054 C56.3524343,6.94596714 56.2928841,6.98942465 56.2930967,7.15971005 C56.297563,10.3677678 56.2974921,13.5758255 56.2932385,16.7838832 C56.2930259,16.9505531 56.3462666,17.0005328 56.50925,16.9995402 C57.4200855,16.9935852 58.3309918,16.993089 59.2418273,16.9998947 C59.4075755,17.0011708 59.4540105,16.9499859 59.4533725,16.7850175 C59.4474883,15.2611688 59.4455742,13.7373201 59.453018,12.2135423 C59.4548612,11.8372414 59.4779724,11.4590972 59.5225642,11.0854902 C59.5712678,10.6776418 59.701853,10.2920539 59.9884032,9.98097464 C60.3563388,9.58156252 60.8343714,9.49152819 61.3503319,9.50124056 C62.0705356,9.51471026 62.5193603,9.85024763 62.7251632,10.5396837 C62.8578043,10.9839712 62.8683674,11.4408068 62.8686509,11.898564 C62.8695017,13.5198199 62.8687927,15.1410049 62.8692181,16.7622608 C62.869289,16.9887645 62.876591,16.9962083 63.0992664,16.9964209 C63.9872743,16.997059 64.8752112,16.9968463 65.7631482,16.9966336 C66.0399151,16.9965627 66.0414039,16.9962083 66.0402696,16.7233405 C66.0321878,14.7591034 66.0269417,12.7947954 66.0129048,10.8305584 C66.0085803,10.2288172 65.927833,9.63381078 65.7630064,9.05376287 C65.5107685,8.16568413 65.0355007,7.44136861 64.1625222,7.06308266 C63.2492055,6.66728609 62.2927857,6.59568399 61.3258029,6.83289253 C60.4912485,7.0376391 59.8315166,7.50603027 59.3367532,8.2303387 Z M54.3964209,11.9824377 C54.3964209,10.3786215 54.3935852,8.77480533 54.4004618,7.17098915 C54.4012416,6.99694642 54.3547357,6.94483994 54.1807639,6.9462578 C53.2758125,6.95370158 52.3707194,6.95320533 51.4657681,6.94654137 C51.2961917,6.94533619 51.2390518,6.99283461 51.2393353,7.16964218 C51.244227,10.3715322 51.2441561,13.5734931 51.2393353,16.7753831 C51.2391227,16.9506311 51.2930015,17.0011779 51.4644212,16.9999018 C52.3693725,16.9930252 53.2744656,16.9929543 54.1794169,16.9999727 C54.3509784,17.0013197 54.4013834,16.9531832 54.4006036,16.7767301 C54.3934434,15.1786492 54.3964209,13.5805753 54.3964209,11.9824377 Z M51,3.8262423 C51.0001418,4.82633225 51.8191706,5.66372237 52.8206784,5.65372644 C53.854159,5.64337604 54.6560317,4.86496903 54.6541884,3.82425729 C54.6522743,2.76539691 53.8358686,1.99407922 52.8187643,2.00003425 C51.7340988,2.00627284 51.0018432,2.8744306 51,3.8262423 Z" id="Shape"></path>
                        </g>
                    </g>
                </g>
            </g>
        </g>
    </g>
</svg>