<?xml version="1.0" encoding="UTF-8"?>
<svg width="75px" height="73px" viewBox="0 0 75 73" version="1.1" xmlns="http://www.w3.org/2000/svg" xmlns:xlink="http://www.w3.org/1999/xlink">
    <!-- Generator: Sketch 54.1 (76490) - https://sketchapp.com -->
    <title>green-earth</title>
    <desc>Created with Sketch.</desc>
    <g id="Interface" stroke="none" stroke-width="1" fill="none" fill-rule="evenodd">
        <g id="Home-/-Web" transform="translate(-1220.000000, -1542.000000)">
            <g id="Section-Valores" transform="translate(0.000000, 1338.000000)">
                <g id="green-earth" transform="translate(1222.000000, 204.000000)">
                    <path d="M59.8990926,15.920264 C58.95073,6.6434245 51.7027258,0.583123924 51.3948215,0.329715186 C50.8670884,-0.104455601 50.1026612,-0.110438269 49.5681531,0.315328294 C49.4927627,0.375297421 42.024209,6.42391755 41.0935769,15.9001793 C41.0304392,16.5433161 40.9990145,17.195427 41.0000235,17.8387063 C41.0011767,18.6245725 41.646392,19.2605871 42.441379,19.2605871 C42.4420998,19.2605871 42.4429647,19.2605871 42.4436854,19.2605871 C43.2398257,19.2593051 43.8840318,18.6205841 43.8827345,17.8340056 C43.8818696,17.2837426 43.9088256,16.7256451 43.9628819,16.1752396 C44.0232807,15.5601643 44.1176989,14.9610428 44.2387849,14.3775902 L48.8631157,18.9470668 C48.923947,19.0071784 48.9896793,19.059598 49.0578623,19.1067471 L49.0578623,22.5756976 C49.0578623,23.3624185 49.7033658,24 50.4992177,24 C51.2952138,24 51.9405732,23.362276 51.9405732,22.5756976 L51.9405732,15.2227133 L55.8255588,11.383692 C56.4112401,12.8548587 56.8536364,14.471746 57.0309408,16.2065774 C57.0873035,16.7558433 57.1162776,17.3137984 57.1172866,17.8653434 C57.1187281,18.6512096 57.7637992,19.2870818 58.5586421,19.2870818 C58.559507,19.2870818 58.5603719,19.2870818 58.561381,19.2870818 C59.3573771,19.2856574 60.0014391,18.6467938 59.9999976,17.8602154 C59.9988444,17.2152268 59.964825,16.5625462 59.8990926,15.920264 Z M49.0574298,14.6013705 C49.0569974,14.6233069 49.0569974,14.6449585 49.0574298,14.666895 L49.0574298,15.110752 L45.1760479,11.2752918 C46.2416045,8.60032682 47.7795404,6.42576933 49.0574298,4.91400602 L49.0574298,14.6013705 Z M51.9401408,11.193956 L51.9401408,4.98992893 C52.7568944,5.96367942 53.6732558,7.20194932 54.5060101,8.65844417 L51.9401408,11.193956 Z" id="Shape" fill="#F7941D" fill-rule="nonzero"></path>
                    <path d="M71.5086507,70 L71.4913493,70 C70.6677439,70 70,70.6717672 70,71.5 C70,72.3283828 70.667893,73 71.4913493,73 L71.5086507,73 C72.3322561,73 73,72.3282328 73,71.5 C73,70.6717672 72.332107,70 71.5086507,70 Z" id="Path" fill="#005CA9" fill-rule="nonzero"></path>
                    <path d="M66.9128502,70.1489277 L51.7531938,70.1489277 L51.7531938,64.9363857 L53.8543926,62.8352579 C54.4111668,62.2785025 54.4111668,61.3760028 53.8543926,60.8189622 C53.2976184,60.2626346 52.3952307,60.2623494 51.8380288,60.8189622 L51.7530512,60.9039369 L51.7530512,57.0053661 C54.6477067,53.9278847 56.8200527,50.3558107 58.2082098,46.3842415 C58.4681328,45.6408554 58.0761809,44.8278927 57.3327698,44.5681211 C56.589216,44.3080643 55.7762259,44.7002881 55.5165881,45.4435316 C54.6184778,48.0127331 53.3562187,50.3965871 51.7529087,52.565438 L51.7529087,42.3339708 L53.5199003,40.5611933 C54.5701432,41.3855619 56.3047693,42.40369 58.547835,42.4992153 C58.6640375,42.5040628 58.7800975,42.5066292 58.8961574,42.5066292 C61.5099306,42.5066292 64.0854924,41.2513989 66.5572561,38.7717344 C73.8683213,31.4366784 72.9877484,20.7955932 72.9466854,20.3460542 C72.8846632,19.6695359 72.3541237,19.1306023 71.6785805,19.0583168 C71.5699347,19.0466257 60.7448473,17.9831587 53.2839307,25.4683463 C51.9279967,26.8286544 50.9433405,28.2203289 50.3275382,29.6322492 C49.711736,28.2206141 48.7272224,26.8287969 47.3712883,25.4683463 C39.9105143,17.9833013 29.0849992,19.0464831 28.9766386,19.0583168 C28.3010954,19.1306023 27.7705559,19.6696784 27.7085337,20.3460542 C27.6676133,20.7954506 26.7868977,31.4366784 34.097963,38.7717344 C36.5697267,41.251684 39.1450033,42.5066292 41.7589191,42.5066292 C41.8748364,42.5066292 41.9911816,42.5040628 42.1072415,42.4992153 C44.3503072,42.4035474 46.0850758,41.3854194 47.1351762,40.5610507 L48.9014549,42.3331154 L48.9014549,54.970108 L47.9607133,54.0292556 C47.4037965,53.4726428 46.5014089,53.4726428 45.9443495,54.0292556 C45.3875754,54.5860109 45.3875754,55.4886533 45.9443495,56.0455512 L48.9013123,59.0024142 L48.9013123,64.344842 C48.9013123,64.3452697 48.9013123,64.34584 48.9013123,64.3462678 L48.9013123,70.1487851 L1.42565558,70.1487851 C0.638329836,70.1487851 0,70.787236 0,71.5743926 C0,72.3616917 0.638472415,73 1.42565558,73 L66.9121373,73 C67.699463,73 68.3377928,72.3615491 68.3377928,71.5743926 C68.3379354,70.787236 67.7001759,70.1489277 66.9128502,70.1489277 Z M68.8612034,29.5988866 L64.4463619,29.5988866 L70.030643,23.996402 C69.8849264,25.5655824 69.5587038,27.5359689 68.8612034,29.5988866 Z M57.8349359,25.3953479 C61.3689192,23.0092127 65.3142453,22.2092243 68.0336701,21.9608587 L57.8349359,32.1928962 L57.8349359,25.3953479 L57.8349359,25.3953479 Z M61.6046036,32.4502441 L67.654693,32.4502441 C66.877633,33.9522717 65.8644608,35.4277804 64.5380408,36.758718 C62.5557536,38.7474967 60.5918592,39.7197156 58.7005379,39.6515648 C57.3696979,39.6028041 56.2791049,39.0366388 55.5529459,38.5218005 L61.6046036,32.4502441 Z M54.9836247,27.8128496 L54.9836247,35.0536636 L53.5402892,36.5017979 C53.0321348,35.7788 52.4762161,34.6977964 52.419897,33.3775519 C52.3426188,31.5722672 53.205797,29.7018258 54.9836247,27.8128496 Z M42.8205684,25.3953479 L42.8205684,32.1928962 L32.6219767,21.9610013 C35.3414015,22.2095095 39.2867276,23.0093552 42.8205684,25.3953479 Z M30.6247187,23.996402 L36.2089997,29.5988866 L31.7943009,29.5988866 C31.096943,27.5358264 30.7707204,25.5654399 30.6247187,23.996402 Z M41.9860487,39.6502816 C40.084034,39.730979 38.1107293,38.7581898 36.1177486,36.758718 C34.7913286,35.4279229 33.7778713,33.9524143 33.0010964,32.4501015 L39.0510432,32.4501015 L43.2378995,36.6506462 C43.2380421,36.6507887 43.2383272,36.6510739 43.2384698,36.6512165 L45.1035564,38.5223708 C44.3835283,39.033217 43.3044843,39.594107 41.9860487,39.6502816 Z M48.2373181,33.3460428 C48.1885558,34.679119 47.6270765,35.7719564 47.1147873,36.501085 L45.6721647,35.0536636 L45.6721647,27.812707 C47.4394415,29.6907049 48.3029049,31.5505958 48.2373181,33.3460428 Z" id="Shape" fill="#F7941D" fill-rule="nonzero"></path>
                    <path d="M0,71.5 L66.8548156,71.5" id="Line-2" stroke="#1F2A47" stroke-width="3" stroke-linecap="square"></path>
                    <path d="M38.9487671,8.073947 L38.9313633,8.06841231 C38.1481914,7.82219365 37.3131055,8.26152792 37.0681133,9.04999607 C36.823121,9.83846421 37.2598528,10.6774924 38.0439172,10.9238607 L38.0756011,10.9337334 C38.2210792,10.9786092 38.3680448,11 38.5126303,11 C39.1488367,11 39.7375915,10.5862449 39.9340911,9.94302487 C40.1752158,9.15321045 39.7340215,8.31642601 38.9487671,8.073947 Z" id="Path" fill="#005CA9" fill-rule="nonzero"></path>
                    <path d="M46.8984326,49.4543357 L45.400697,49.1033081 C40.5066016,47.9567895 35.5061158,50.4772732 33.5088023,55.096779 L29.5991734,64.1382037 C27.5880264,64.1127731 25.6289335,63.8678968 23.7449984,63.4242905 L21.9469171,57.4172471 C20.5803867,52.8520312 22.6910786,48.0192229 26.9652296,45.9260585 L28.3986461,45.2242891 C29.6636351,44.6048118 30.6224312,43.4750088 31.028882,42.1246169 C31.4354754,40.774368 31.2602024,39.3018237 30.5478439,38.0851567 C29.6409594,36.5356064 27.9632446,35.5728164 26.1701548,35.5728164 L22.7665216,35.5728164 C21.6997665,35.5728164 20.7720604,35.0049147 20.2854603,34.0538399 C19.7987176,33.1027652 19.8800078,32.0166799 20.5029471,31.1490403 L23.5789953,26.8642751 C25.0804388,24.7729679 24.9798957,21.9297445 23.3345544,19.9500175 L17.4802367,12.9060355 C21.2143073,10.9593111 25.454231,9.85708163 29.9465819,9.85708163 C30.794424,9.85708163 31.6503951,9.89679903 32.4911065,9.9750909 C33.2729182,10.0478109 33.970017,9.47047982 34.0430355,8.68498953 C34.1160541,7.89935638 33.5393218,7.20330169 32.7552283,7.13029595 C31.8272369,7.04386059 30.8824171,7 29.9468671,7 C24.3873333,7 19.1779175,8.52740572 14.7113798,11.1826143 C14.6067009,11.2283322 14.506443,11.2879083 14.4121749,11.3606283 C5.77773378,16.6300424 0,26.1517905 0,36.9999286 C0,50.8351585 9.39842604,62.5110759 22.1345975,65.962347 C22.2047638,65.9874919 22.276784,66.0070648 22.3505156,66.0210659 C24.7773834,66.6591161 27.3227637,67 29.9467245,67 C35.2776477,67 40.5124487,65.5787455 45.0853768,62.8898199 C45.7646488,62.49036 45.9918334,61.6151483 45.593369,60.9345234 C45.194762,60.2538985 44.3211067,60.0263092 43.6415495,60.4256263 C40.3170671,62.3806371 36.604246,63.5928752 32.7699175,63.9937638 L36.1259176,56.2322968 C37.5747364,52.8818907 41.2031299,51.0538899 44.7510888,51.885241 L46.2486818,52.2362686 C47.0155189,52.4154255 47.7826413,51.9389595 47.9621928,51.1707563 C48.1416016,50.4025531 47.6652698,49.634207 46.8984326,49.4543357 Z M2.85200109,36.9999286 C2.85200109,27.5667588 7.68120706,19.2438192 14.9920447,14.3774368 L21.1430002,21.778304 C21.9563296,22.7569523 22.006102,24.1624913 21.2637945,25.1962869 L18.1877463,29.4810521 C16.9462887,31.2101879 16.777576,33.4619363 17.7473533,35.3575138 C18.7171307,37.2529484 20.6404273,38.4303267 22.7665216,38.4303267 L26.1702974,38.4303267 C26.9558171,38.4303267 27.6904234,38.8519312 28.0877469,39.5306988 C28.4043507,40.0714556 28.4790806,40.6997907 28.2985309,41.2999807 C28.1176959,41.9001707 27.7085355,42.3823515 27.1464924,42.6576588 L25.7130759,43.3594282 C20.1784996,46.0694983 17.445724,52.3268471 19.2151399,58.2380258 L20.4692902,62.4279265 C10.1895076,58.5701948 2.85200109,48.6279851 2.85200109,36.9999286 Z" id="Shape" fill="#1F2A47" fill-rule="nonzero"></path>
                </g>
            </g>
        </g>
    </g>
</svg>