<?xml version="1.0" encoding="UTF-8"?>
<svg width="122px" height="143px" viewBox="0 0 122 143" version="1.1" xmlns="http://www.w3.org/2000/svg" xmlns:xlink="http://www.w3.org/1999/xlink">
    <!-- Generator: Sketch 54.1 (76490) - https://sketchapp.com -->
    <title>Group 3</title>
    <desc>Created with Sketch.</desc>
    <g id="Interface" stroke="none" stroke-width="1" fill="none" fill-rule="evenodd">
        <g id="Home-/-Web" transform="translate(-534.000000, -2234.000000)">
            <g id="Section-Eixos" transform="translate(150.000000, 2040.000000)">
                <g id="Box-2" transform="translate(299.000000, 169.000000)">
                    <g id="Group-3" transform="translate(85.000000, 0.000000)">
                        <text id="Title" font-family="Arial-BoldMT, Arial" font-size="138" font-weight="bold" fill="#E5ECED">
                            <tspan x="52.1254883" y="125">2</tspan>
                        </text>
                        <g id="social-media" transform="translate(0.000000, 95.000000)">
                            <path d="M15.2330456,54.9262925 C15.2330456,55.5190685 15.7135481,56 16.3057953,56 C16.8980425,56 17.378545,55.5190685 17.378545,54.9262925 L17.378545,43.4476877 C17.4003353,43.4476877 17.4221255,43.4488062 17.4439157,43.4488062 C18.1831073,43.4488062 18.84296,43.3470276 19.3324021,43.2407753 C19.8978306,43.1177463 20.3001117,42.6088536 20.2894959,42.0300583 C20.2788803,41.4507034 19.8576025,40.9569099 19.2882629,40.8545721 C18.7541231,40.758945 18.3909525,40.5296638 18.1456727,40.1337341 C17.6227073,39.289867 17.7115444,37.8867773 17.8774853,36.9327435 L23.5915536,36.9327435 C27.2243758,36.9327435 30.1800247,33.9744554 30.1800247,30.3383897 L30.1800247,17.0423112 C30.1800247,13.4062453 27.2243758,10.4479574 23.5915536,10.4479574 L17.378545,10.4479574 L17.378545,8.73282137 L22.8378353,8.73282137 C23.4300825,8.73282137 23.910585,8.25188987 23.910585,7.65911383 C23.910585,7.06633779 23.4300825,6.58540628 22.8378353,6.58540628 L17.378545,6.58540628 L17.378545,5.36853773 C17.378545,3.5924465 18.8222873,2.14741509 20.5967941,2.14741509 L52.6362515,2.14741509 C54.4107583,2.14741509 55.8545006,3.5924465 55.8545006,5.36853773 L55.8545006,6.58540628 L27.4149006,6.58540628 C26.8220947,6.58540628 26.3421509,7.06633779 26.3421509,7.65911383 C26.3421509,8.25188987 26.8220947,8.73282137 27.4149006,8.73282137 L55.8545006,8.73282137 L55.8545006,13.7434566 C55.8545006,14.3362326 56.3350031,14.8171641 56.9272503,14.8171641 C57.5194975,14.8171641 58,14.3362326 58,13.7434566 L58,5.36853773 C58,2.40801279 55.5941354,0 52.6362515,0 L20.5967941,0 C17.6389102,0 15.2330456,2.40801279 15.2330456,5.36853773 L15.2330456,10.4479574 L6.58847102,10.4479574 C2.95564882,10.4479574 0,13.4062453 0,17.0423112 L0,30.3383897 C0,33.9744554 2.95564882,36.9327435 6.58847102,36.9327435 L10.9889797,36.9327435 C11.2985127,39.3703951 12.1863248,41.1593484 13.6350956,42.2587803 C14.1463279,42.6468808 14.6882899,42.9169854 15.2330456,43.1020881 L15.2330456,54.9262925 Z M13.0378199,35.7952845 C13.0042964,35.2282328 12.5349684,34.7853284 11.9667462,34.7853284 L6.58847102,34.7853284 C4.13846721,34.7853284 2.14549938,32.7905811 2.14549938,30.3383897 L2.14549938,17.0423112 C2.14549938,14.5901197 4.13846721,12.5953725 6.58847102,12.5953725 L23.5915536,12.5953725 C26.0415575,12.5953725 28.0345253,14.5901197 28.0345253,17.0423112 L28.0345253,30.3383897 C28.0345253,32.7905811 26.0415575,34.7853284 23.5915536,34.7853284 L17.0209618,34.7853284 C16.5454878,34.7853284 16.126445,35.0990523 15.9923513,35.555378 C15.8878699,35.9088067 15.0229655,39.0298285 16.263891,41.168296 C15.8023852,41.0553331 15.3447904,40.8612828 14.9318935,40.5475589 C13.8116523,39.6975404 13.1741485,38.0987228 13.0378199,35.7952845 Z" id="Shape" fill="#1F2A47" fill-rule="nonzero"></path>
                            <path d="M33.0909091,70 L38.9090909,70 C39.5113636,70 40,69.5520833 40,69 C40,68.4479167 39.5113636,68 38.9090909,68 L33.0909091,68 C32.4886364,68 32,68.4479167 32,69 C32,69.5520833 32.4886364,70 33.0909091,70 Z" id="Path" fill="#005CA9" fill-rule="nonzero"></path>
                            <path d="M66.411529,27.6925332 L57.7669544,27.6925332 L57.7669544,18.0718772 C57.7669544,17.4801118 57.2864519,17 56.6942047,17 C56.1019575,17 55.621455,17.4801118 55.621455,18.0718772 L55.621455,27.6925332 L49.4084464,27.6925332 C45.7756242,27.6925332 42.8199753,30.6457781 42.8199753,34.2756456 L42.8199753,47.5484996 C42.8199753,51.1789253 45.7756242,54.1321703 49.4084464,54.1321703 L55.1213972,54.1321703 C55.2834271,55.0756455 55.3750578,56.485834 54.8560035,57.3249127 C54.6107237,57.7218423 54.2469945,57.951291 53.7117371,58.0473133 C53.1423975,58.1489184 52.7211197,58.6424284 52.7105041,59.2202372 C52.6998883,59.7980461 53.1021694,60.3066295 53.6675979,60.4294488 C54.15704,60.5355199 54.816334,60.6365667 55.5560843,60.6365667 C55.5773158,60.6365667 55.5996647,60.6360084 55.621455,60.6360084 L55.621455,64.2820656 L17.1454994,64.2820656 L17.1454994,59.2559665 C17.1454994,58.664201 16.6649969,58.1840893 16.0727497,58.1840893 C15.4799438,58.1840893 15,58.664201 15,59.2559665 L15,67.6406141 C15,70.5960922 17.4058646,73 20.3637485,73 L52.4032059,73 C55.3605309,73 57.7669544,70.5960922 57.7669544,67.6406141 L57.7669544,60.290998 C58.3117101,60.1062108 58.8531134,59.8365666 59.3643458,59.4491278 C60.8136752,58.3515701 61.7014873,56.5656664 62.0104617,54.1321703 L66.4109703,54.1321703 C70.0443512,54.1321703 73,51.1789253 73,47.549058 L73,34.2756456 C73,30.6457781 70.0443512,27.6925332 66.411529,27.6925332 L66.411529,27.6925332 Z M55.621455,67.6406141 C55.621455,69.4136776 54.1777127,70.8562456 52.4032059,70.8562456 L20.3637485,70.8562456 C18.5892417,70.8562456 17.1454994,69.4136776 17.1454994,67.6406141 L17.1454994,66.42582 L55.621455,66.42582 L55.621455,67.6406141 Z M70.8545006,47.549058 C70.8545006,49.9970691 68.8615328,51.988416 66.411529,51.988416 L61.0326949,51.988416 C60.4650316,51.988416 59.9957036,52.4305653 59.9621801,52.9966504 C59.8252928,55.2961619 59.1883477,56.8928123 58.0681065,57.7408235 C57.6552096,58.0540126 57.1976148,58.2477321 56.736109,58.3605024 C57.9770345,56.2251221 57.1121301,53.1094209 57.0076487,52.7571529 C56.873555,52.3016051 56.4545122,51.988416 55.9790382,51.988416 L49.4084464,51.988416 C46.9584425,51.988416 44.9654747,49.9970691 44.9654747,47.549058 L44.9654747,34.2756456 C44.9654747,31.8276343 46.9584425,29.8362876 49.4084464,29.8362876 L66.411529,29.8362876 C68.8615328,29.8362876 70.8545006,31.8276343 70.8545006,34.2756456 L70.8545006,47.549058 Z" id="Shape" fill="#1F2A47" fill-rule="nonzero"></path>
                            <path d="M61.1306985,39.5580808 C61.6887867,38.8664771 62.0235294,37.9870579 62.0235294,37.030303 C62.0235294,34.8080019 60.2185662,33 58,33 C55.7814338,33 53.9764706,34.8080019 53.9764706,37.030303 C53.9764706,37.9870579 54.3112133,38.8659248 54.8693015,39.5580808 C53.1652573,40.4590435 52,42.2515781 52,44.3120264 L52,44.4059343 C52,45.8360953 53.1619486,47 54.5902573,47 L61.4102941,47 C62.8380514,47 64,45.8360953 64,44.4059343 L64,44.3120264 C64,42.2515781 62.8347427,40.4590435 61.1306985,39.5580808 L61.1306985,39.5580808 Z M58,35.1212121 C59.0511029,35.1212121 59.9058824,35.9779828 59.9058824,37.030303 C59.9058824,38.0831754 59.0511029,38.9393939 58,38.9393939 C56.9488971,38.9393939 56.0941176,38.0831754 56.0941176,37.030303 C56.0941176,35.9779828 56.9488971,35.1212121 58,35.1212121 Z M61.8823529,44.4059343 C61.8823529,44.6666667 61.6705882,44.8787879 61.4097427,44.8787879 L54.5897059,44.8787879 C54.3294118,44.8787879 54.1176471,44.6666667 54.1176471,44.4059343 L54.1176471,44.3120264 C54.1176471,42.5194918 55.5735294,41.0606061 57.363603,41.0606061 L58.636397,41.0606061 C60.4264706,41.0606061 61.8823529,42.5194918 61.8823529,44.3120264 L61.8823529,44.4059343 Z" id="Shape" fill="#F7941D" fill-rule="nonzero"></path>
                            <path d="M49.946281,13 L35.053719,13 C34.4714295,13 34,13.4479165 34,14 C34,14.5520832 34.4714295,15 35.053719,15 L49.946281,15 C50.5280217,15 51,14.5520832 51,14 C51,13.4479165 50.5280217,13 49.946281,13 Z" id="Path" fill="#1F2A47" fill-rule="nonzero"></path>
                            <path d="M49.946281,18 L35.053719,18 C34.4714295,18 34,18.4479165 34,19 C34,19.5520832 34.4714295,20 35.053719,20 L49.946281,20 C50.5280217,20 51,19.5520832 51,19 C51,18.4479165 50.5280217,18 49.946281,18 Z" id="Path" fill="#1F2A47" fill-rule="nonzero"></path>
                            <path d="M51,23 C51,22.4479165 50.5280217,22 49.946281,22 L35.053719,22 C34.4714295,22 34,22.4479165 34,23 C34,23.5520832 34.4714295,24 35.053719,24 L49.946281,24 C50.5280217,24 51,23.5520832 51,23 Z" id="Path" fill="#1F2A47" fill-rule="nonzero"></path>
                            <path d="M39,45 C39,44.4479167 38.5280217,44 37.946281,44 L23.053719,44 C22.4714294,44 22,44.4479167 22,45 L22,49 C22,49.5520833 22.4714294,50 23.053719,50 L37.946281,50 C38.5280217,50 39,49.5520833 39,49 L39,45 Z M36.892562,48 L24.107438,48 L24.107438,46 L36.892562,46 L36.892562,48 Z" id="Shape" fill="#1F2A47" fill-rule="nonzero"></path>
                            <text id="$" font-family="Arial-BoldMT, Arial" font-size="15" font-weight="bold" letter-spacing="0.307500005" fill="#F7941D">
                                <tspan x="11" y="29">$</tspan>
                            </text>
                            <path d="M37.946281,52 L23.053719,52 C22.4714294,52 22,52.4479167 22,53 C22,53.5520833 22.4714294,54 23.053719,54 L37.946281,54 C38.5280217,54 39,53.5520833 39,53 C39,52.4479167 38.5280217,52 37.946281,52 Z" id="Path" fill="#1F2A47" fill-rule="nonzero"></path>
                        </g>
                    </g>
                </g>
            </g>
        </g>
    </g>
</svg>