<?xml version="1.0" encoding="UTF-8"?>
<svg width="73px" height="73px" viewBox="0 0 73 73" version="1.1" xmlns="http://www.w3.org/2000/svg" xmlns:xlink="http://www.w3.org/1999/xlink">
    <!-- Generator: Sketch 54.1 (76490) - https://sketchapp.com -->
    <title>voice-assistant</title>
    <desc>Created with Sketch.</desc>
    <g id="Interface" stroke="none" stroke-width="1" fill="none" fill-rule="evenodd">
        <g id="Home-/-Web" transform="translate(-794.000000, -1542.000000)" fill-rule="nonzero">
            <g id="Section-Valores" transform="translate(0.000000, 1338.000000)">
                <g id="voice-assistant" transform="translate(794.000000, 204.000000)">
                    <path d="M12.2901995,13.709496 C12.3858646,13.8002212 12.4975502,13.8712435 12.6202213,13.9198135 C12.7401461,13.9711328 12.8692254,13.9981672 13.0001356,14 C13.4043094,13.9981672 13.7682031,13.7539421 13.923373,13.3805023 C14.078085,13.0066043 13.9943208,12.5763466 13.7100718,12.2881336 C13.4221608,12.0045026 12.9923543,11.9215669 12.6202213,12.0782742 C12.4975502,12.126386 12.3854069,12.1978665 12.2901995,12.2881336 C12.1071083,12.4801229 12.0036618,12.7339703 12,12.9988148 C12.0013731,13.1298623 12.0288368,13.2590771 12.0801023,13.3795859 C12.1309101,13.5005529 12.201858,13.6123557 12.2901995,13.709496 Z" id="Path" fill="#005CA9"></path>
                    <path d="M18.1669337,14 L22.8336004,14 C23.4776836,14 24,13.5523003 24,12.9997711 C24,12.4476997 23.4776836,12 22.8336004,12 L18.1669337,12 C17.5223162,12 17,12.4476997 17,12.9997711 C17,13.5523003 17.5223162,14 18.1669337,14 Z" id="Path" fill="#005CA9"></path>
                    <path d="M52.0059444,22.0000367 C48.3899602,21.9917055 44.9224529,23.4002389 42.387495,25.9079395 C42.0585615,26.2123071 41.9255033,26.6671923 42.0408586,27.0948621 C42.1562136,27.5219765 42.501708,27.8546704 42.9419992,27.9629764 C43.3822904,28.0712825 43.8488506,27.9379828 44.1589389,27.6152863 C46.2307631,25.5752456 49.0569642,24.4266466 52.0053733,24.4266466 C54.9537823,24.4266466 57.7794125,25.5752456 59.8518077,27.6152863 C60.1636092,27.9318732 60.626172,28.060174 61.0630367,27.9513127 C61.4993305,27.8418958 61.8413985,27.5125345 61.9578958,27.089308 C62.073822,26.6655261 61.9464745,26.2139734 61.6238226,25.9079395 C59.0888647,23.4002389 55.6219285,21.9917055 52.0059444,22.0000367 L52.0059444,22.0000367 Z" id="Path" fill="#F7941D"></path>
                    <path d="M52.5030714,27.000028 C50.2009001,26.9939559 47.9934871,27.9746256 46.3791701,29.7210068 C46.0549367,30.0555883 45.9259284,30.5498702 46.0418075,31.0143979 C46.1576867,31.4783184 46.5007576,31.840225 46.9385869,31.9586341 C47.3758453,32.0776503 47.839933,31.9355594 48.1510372,31.587619 C49.3001249,30.3494856 50.8670628,29.6529975 52.5025006,29.6529975 C54.1379384,29.6529975 55.705447,30.3494856 56.8539641,31.587619 C57.1662098,31.9325233 57.628585,32.071578 58.064131,31.9525617 C58.4996768,31.8329383 58.8410353,31.4734606 58.9574853,31.0113618 C59.0739353,30.549263 58.9472102,30.0561955 58.6258311,29.7210068 C57.0120849,27.9746256 54.8046719,26.9939559 52.5030714,27.000028 L52.5030714,27.000028 Z" id="Path" fill="#F7941D"></path>
                    <path d="M49.3535576,33.0040192 C48.8747649,33.4674956 48.8833969,34.2052854 49.3725482,34.6590612 C49.8616993,35.1128368 50.6495205,35.1139148 51.1398228,34.660678 C51.6226437,34.2214532 52.3908989,34.2214532 52.87372,34.660678 C53.3657484,35.1020583 54.1437866,35.0955912 54.6277587,34.6466658 C55.1117306,34.1972014 55.125542,33.4691125 54.6588341,33.0040192 C53.1792957,31.6653269 50.8330961,31.6653269 49.3535576,33.0040192 L49.3535576,33.0040192 Z" id="Path" fill="#F7941D"></path>
                    <path d="M51.3315316,0.0239800233 C44.7055208,0.381533545 38.6487587,3.88132604 35.0305202,9.4428996 C33.8825538,8.08675782 32.1965304,7.30314734 30.4191599,7.3009196 L6.08349781,7.3009196 C2.72537588,7.30481819 0.00389896396,10.0260126 0,13.3837863 L0,66.9165766 C0.00389896396,70.2743501 2.72537588,72.9955445 6.08349781,73 L30.4191599,73 C33.7778388,72.9955445 36.4993156,70.2743501 36.5032146,66.9165766 L36.5032146,33.9603828 C36.6274245,34.1079711 36.7365955,34.2644706 36.8658183,34.4092742 C39.7889272,37.7185941 41.3919584,41.9875168 41.3702357,46.4029138 L41.3702357,47.4499555 C41.3746916,48.6245357 41.8074766,49.7567888 42.5867124,50.6350785 L42.5867124,58.399895 C42.5900543,61.0865594 44.7673473,63.2636264 47.4542905,63.266411 L57.1883323,63.266411 C59.8752755,63.2636264 62.0525685,61.0865594 62.0553534,58.399895 L62.0553534,50.6350785 C62.8351462,49.7567888 63.2673742,48.6245357 63.2718302,47.4499555 L63.2718302,46.9353455 C63.1949648,42.339501 64.805237,37.8739796 67.7985274,34.384769 C73.3138903,28.1609973 74.5632298,19.2388655 70.969499,11.739708 C67.3757683,4.24110745 59.6379958,-0.375343814 51.3315316,0.0239800233 L51.3315316,0.0239800233 Z M6.08349781,9.73417772 L30.4191599,9.73417772 C31.8155459,9.73250688 33.0882792,10.5339392 33.6903906,11.793174 C32.8537843,13.5157803 32.2650408,15.3481033 31.9408697,17.235563 C31.4440304,17.1035689 30.9327091,17.0361794 30.4191599,17.0339517 L6.08349781,17.0339517 C4.76286298,17.0384072 3.48066076,17.4772736 2.43351044,18.2814907 L2.43351044,13.3837863 C2.43573856,11.3693449 4.06884732,9.73640533 6.08349781,9.73417772 Z M30.4191599,70.5661851 L6.08349781,70.5661851 C4.06884732,70.5639574 2.43573856,68.9315748 2.43351044,66.9165766 L2.43351044,65.6684807 C3.48066076,66.4732547 4.76286298,66.9121211 6.08349781,66.9165766 L30.4191599,66.9165766 C31.7397946,66.9121211 33.0225538,66.4732547 34.0697041,65.6684807 L34.0697041,66.9165766 C34.0674761,68.9315748 32.4343672,70.5639574 30.4191599,70.5661851 Z M34.0697041,60.833153 C34.0674761,62.8481514 32.4343672,64.4810907 30.4191599,64.4833186 L6.08349781,64.4833186 C4.06884732,64.4810907 2.43573856,62.8481514 2.43351044,60.833153 L2.43351044,23.1173752 C2.43573856,21.1023769 4.06884732,19.4694376 6.08349781,19.4672097 L30.4191599,19.4672097 C30.8463749,19.4755638 31.268577,19.5613321 31.6651574,19.7195023 C31.4924889,23.4197921 32.3229682,27.0978044 34.0697041,30.3647972 L34.0697041,60.833153 Z M57.1883323,60.833153 L47.4542905,60.833153 C46.1108187,60.8320391 45.0218939,59.7432272 45.0202229,58.399895 L45.0202229,52.1438209 C45.4168032,52.2535376 45.8261945,52.3114591 46.2372566,52.3164715 L58.4048091,52.3164715 C58.8164283,52.3114591 59.2252626,52.2535376 59.621843,52.1438209 L59.621843,58.399895 C59.6201719,59.7432272 58.5318041,60.8320391 57.1883323,60.833153 Z M65.9793821,32.7690946 C62.5900685,36.703298 60.7608974,41.7435783 60.8383197,46.9353455 L60.8383197,47.4499555 C60.8372057,48.7932876 59.7482808,49.8820996 58.4048091,49.8832135 L57.1883323,49.8832135 L57.1883323,41.3670889 C57.1883323,40.6948658 56.6435915,40.1501814 55.9712986,40.1501814 C55.2995629,40.1501814 54.7548219,40.6948658 54.7548219,41.3670889 L54.7548219,49.8832135 L49.8878009,49.8832135 L49.8878009,41.3670889 C49.8878009,40.6948658 49.3430599,40.1501814 48.6707672,40.1501814 C47.9990314,40.1501814 47.4542905,40.6948658 47.4542905,41.3670889 L47.4542905,49.8832135 L46.2372566,49.8832135 C44.893785,49.8820996 43.8048602,48.7932876 43.8037461,47.4499555 L43.8037461,46.4029138 C43.8260259,41.3904803 42.0029818,36.5451277 38.6821784,32.7902581 C35.4750021,29.2046974 33.8246264,24.4907821 34.0964399,19.6877569 C34.6684736,10.3746553 42.1266346,2.96627855 51.4440445,2.45501026 C51.7403657,2.44108687 52.0350161,2.43440362 52.3285523,2.43440362 C59.508216,2.43161898 66.0211568,6.64039231 68.9665456,13.1866305 C71.9124913,19.7328687 70.7433591,27.3985505 65.9793821,32.7690946 Z" id="Shape" fill="#1F2A47"></path>
                    <path d="M52.7101933,55.2910515 C52.3176847,54.9018421 51.6845474,54.9032142 51.2938688,55.2937956 C50.9031901,55.6843771 50.9018178,56.3173569 51.2911239,56.7097677 C51.386735,56.7998667 51.4983575,56.871214 51.6209592,56.9196938 C51.7408161,56.9709176 51.8698224,56.9979016 52.0006586,56.999731 C52.4073487,57.0093354 52.7760689,56.7609914 52.9197141,56.3800145 C53.026762,56.1380736 53.026762,55.8627456 52.9197141,55.6208047 C52.8716799,55.4986908 52.8003147,55.3866388 52.7101933,55.2910515 L52.7101933,55.2910515 Z" id="Path" fill="#005CA9"></path>
                </g>
            </g>
        </g>
    </g>
</svg>