<?xml version="1.0" encoding="UTF-8"?>
<svg width="88px" height="73px" viewBox="0 0 88 73" version="1.1" xmlns="http://www.w3.org/2000/svg" xmlns:xlink="http://www.w3.org/1999/xlink">
    <!-- Generator: Sketch 54.1 (76490) - https://sketchapp.com -->
    <title>respect</title>
    <desc>Created with Sketch.</desc>
    <g id="Interface" stroke="none" stroke-width="1" fill="none" fill-rule="evenodd">
        <g id="Home-/-Web" transform="translate(-558.000000, -1542.000000)" fill-rule="nonzero">
            <g id="Section-Valores" transform="translate(0.000000, 1338.000000)">
                <g id="respect" transform="translate(558.000000, 204.000000)">
                    <path d="M80.5618247,7.43960604 C80.2812125,7.15913409 79.8955582,7 79.5007503,7 C79.1045918,7 78.7189376,7.15913409 78.4381753,7.43960604 C78.1592137,7.71842816 78,8.1040396 78,8.5 C78,8.89446055 78.1592137,9.28157184 78.4381753,9.56054395 C78.7187875,9.83951605 79.1044418,10 79.5007503,10 C79.8954082,10 80.2812125,9.83966603 80.5618247,9.56054395 C80.8409364,9.28157184 81,8.89461054 81,8.5 C81,8.1040396 80.8409364,7.71842816 80.5618247,7.43960604 Z" id="Path" fill="#005CA9"></path>
                    <path d="M40.5618246,48.439606 C40.2813625,48.1591341 39.8955582,48 39.5007502,48 C39.1045918,48 38.7187875,48.1591341 38.4381753,48.439606 C38.1592137,48.7184282 38,49.1040396 38,49.5 C38,49.8944606 38.1592137,50.2814219 38.4381753,50.5605439 C38.7187875,50.839516 39.1044417,51 39.5007502,51 C39.8954081,51 40.2812124,50.839666 40.5618246,50.5605439 C40.8409363,50.2815718 40.9999999,49.8946105 41,49.5 C41.00015,49.1040396 40.8410863,48.7184282 40.5618246,48.439606 Z" id="Path" fill="#005CA9"></path>
                    <path d="M84.5597092,13.3915803 C84.0904897,12.5676889 83.0406756,12.2797902 82.2158462,12.7481832 C81.390673,13.2165763 81.1020944,14.2641982 81.5714858,15.087918 C86.6772124,24.0505246 85.1358351,35.408627 77.8228862,42.7085241 L76.5195561,44.0095587 C76.2046806,43.1848095 75.7168986,42.4111889 75.0522569,41.7478894 L57.3910421,24.1179526 C58.5460439,23.5507338 59.6132174,22.7939273 60.5501095,21.8586853 L63.9374272,18.477162 C64.6086001,17.8071713 64.6086001,16.7206023 63.9374272,16.0506116 C63.2660824,15.3806208 62.1779401,15.3806208 61.5064234,16.0506116 L58.1191057,19.4321348 C56.5277126,21.0205535 54.4120999,21.8954019 52.1617371,21.8954019 L45.3903672,21.8954019 C44.934554,21.8954019 44.4974752,22.0762393 44.1748653,22.3979378 L38.9911073,27.5725658 C37.4517924,29.1093411 34.9470542,29.1093411 33.4077393,27.5725658 C31.8682525,26.0359621 31.8682525,23.5356354 33.4077393,21.9990317 L45.2423826,10.1854041 C52.4747219,2.96563143 63.7657238,1.37789911 72.6989408,6.32433557 C73.5290983,6.78363527 74.5754749,6.48492747 75.0359288,5.65606051 C75.4963826,4.82736512 75.1966322,3.78283146 74.3664746,3.32318862 C69.4391545,0.59535673 63.6338955,-0.496359372 58.0190743,0.25015277 C52.7645036,0.948624599 47.9549181,3.14492474 44.0124432,6.62990627 C39.1691701,2.34385253 33.0034886,0 26.475666,0 C19.4036863,0 12.7552073,2.74910688 7.75449639,7.7408385 C2.75378552,12.7325701 0,19.369854 0,26.4292063 C0,33.4887303 2.75395739,40.1254994 7.75449639,45.1174026 L8.40229427,45.7640595 C8.51504445,45.8764396 8.64016964,45.9684024 8.77234172,46.0430365 C8.88732627,47.5274822 9.51037411,48.9796722 10.6452665,50.1123941 C11.9083778,51.3731092 13.5666304,52.0031236 15.2253986,52.0031236 C15.3115081,52.0031236 15.3977895,52.0003784 15.483899,51.9969469 C15.4804615,52.0837627 15.4775396,52.1705784 15.4775396,52.2579088 C15.4775396,53.984958 16.1512907,55.6087206 17.3746988,56.829974 C18.6378101,58.090689 20.2960627,58.720875 21.9548309,58.7207034 C22.0409404,58.7207034 22.1272218,58.7179582 22.2133313,58.7145268 C22.2098938,58.8013425 22.2069719,58.8881582 22.2069719,58.9754886 C22.2069719,60.7025379 22.880723,62.3263004 24.104303,63.5475538 C25.3672424,64.8080973 27.0258388,65.4382832 28.6844351,65.4382832 C28.7715758,65.4382832 28.8587166,65.4355381 28.9458574,65.4321066 C28.876076,67.1737395 29.5046238,68.9385347 30.8337353,70.2654768 C32.0573153,71.4867302 33.6839428,72.1592945 35.4138674,72.1592945 C37.1441357,72.1592945 38.7707632,71.4867302 39.9939995,70.2654768 L42.3963001,67.8672358 L45.6411332,71.1060107 C46.8645414,72.3274356 48.4911689,73 50.2212653,73 C51.9513618,73 53.5779893,72.3274356 54.8013974,71.1061823 C56.1464933,69.7634555 56.7748692,67.9720666 56.6872128,66.2100165 C56.7951505,66.2153353 56.9034319,66.2184236 57.0115415,66.2184236 C58.6703097,66.2184236 60.3292497,65.5882376 61.5920173,64.3275226 C62.9204413,63.0014384 63.5489891,61.2380158 63.4798953,59.4972407 C63.5668641,59.5006722 63.653833,59.5035889 63.7413175,59.5035889 C65.471414,59.5035889 67.0980415,58.8310245 68.3214496,57.6097712 C69.6498736,56.283687 70.2784214,54.5202644 70.2093276,52.7794893 C70.2962964,52.7829208 70.3832653,52.7858375 70.4707498,52.7858375 C72.2008463,52.7858375 73.8274738,52.1132731 75.0508819,50.8920198 C75.672211,50.271785 76.1400555,49.5552981 76.4556185,48.7905992 C76.6228531,48.7092738 76.780119,48.6010116 76.9191661,48.462381 L80.252515,45.134903 C88.6573874,36.7465497 90.4280464,23.6929674 84.5597092,13.3915803 Z M15.2255705,48.5744178 C14.4136317,48.5744178 13.6503337,48.2588959 13.0760984,47.685672 C12.502035,47.1126197 12.1857845,46.3506661 12.1857845,45.5401574 C12.1857845,44.7298202 12.5018631,43.967695 13.0760984,43.3946427 L16.0381967,40.4377615 C16.6122601,39.8645376 17.3757301,39.5490157 18.1876688,39.5490157 C18.9994357,39.5490157 19.7629056,39.8645376 20.336969,40.4377615 C21.5222209,41.6209257 21.5222209,43.5457981 20.336969,44.7287908 L17.3748707,47.6858436 C16.8008073,48.2587243 16.0376811,48.5744178 15.2255705,48.5744178 Z M19.8060463,54.403595 C19.2318111,53.8305427 18.9157324,53.0684175 18.9157324,52.2580804 C18.9157324,51.4475717 19.2318111,50.685618 19.8060463,50.1125657 L22.7683165,47.1555129 C22.7683165,47.1555129 22.7683165,47.1555129 22.7683165,47.1553413 C23.3423799,46.582289 24.105678,46.2665955 24.9176167,46.2665955 C25.7293836,46.2665955 26.4928536,46.5821174 27.0669169,47.1553413 C28.2521688,48.3385056 28.2521688,50.263378 27.0669169,51.4463707 L24.1048186,54.4034235 C22.9193949,55.5864162 20.9906107,55.5864162 19.8060463,54.403595 Z M26.5354786,61.1211749 C25.9612434,60.5481226 25.6451647,59.7859973 25.6451647,58.9756602 C25.6451647,58.1651515 25.9612434,57.4031978 26.5354786,56.8301455 L29.4977488,53.8730927 C29.4977488,53.8730927 29.4977488,53.8730927 29.4977488,53.8729212 C30.0718122,53.2998689 30.8351103,52.9841754 31.647049,52.9841754 C32.4589878,52.9841754 33.2222859,53.2996973 33.7963492,53.8729212 C34.9816011,55.056257 34.9816011,56.9811294 33.7963492,58.1641221 L30.834079,61.1211749 C29.6489991,62.3043391 27.7207305,62.3043391 26.5354786,61.1211749 Z M40.5259534,64.8820451 L37.5636832,67.8392694 C36.9896198,68.4123217 36.2263218,68.7280152 35.414383,68.7280152 C34.6026161,68.7280152 33.8391462,68.4124933 33.2650828,67.8392694 C32.079831,66.6559336 32.079831,64.7310612 33.2650828,63.5480685 L36.227353,60.5910157 C36.227353,60.5910157 36.227353,60.5910157 36.227353,60.5908441 C36.8014164,60.0177918 37.5647145,59.7020984 38.3766532,59.7020984 C39.1884201,59.7020984 39.95189,60.0176203 40.5259534,60.5908441 C41.1001887,61.1638964 41.4162673,61.9260217 41.4162673,62.7363588 C41.4164392,63.5472107 41.1001887,64.3089928 40.5259534,64.8820451 Z M72.6212532,48.4654693 C72.0471898,49.0386931 71.2837198,49.354215 70.471953,49.354215 C69.6600142,49.354215 68.8967161,49.0386931 68.3226528,48.4654693 L61.168001,41.3234189 C61.1676573,41.3230758 61.1674854,41.3229042 61.1671417,41.3225611 L54.438225,34.605496 C53.7668802,33.9355052 52.6787379,33.9355052 52.0072212,34.605496 C51.3360483,35.2754867 51.3360483,36.3620557 52.0072212,37.0320465 L65.891649,50.8916766 C67.0769008,52.0750125 67.0769008,53.9998848 65.891649,55.1828775 C65.3175856,55.7561014 64.5541157,56.0716233 63.7423488,56.0716233 C62.93041,56.0716233 62.167112,55.7561014 61.5930486,55.1828775 L47.7086208,41.3230758 C47.037276,40.6532566 45.9491337,40.6532566 45.277617,41.3230758 C44.6064441,41.9930666 44.6064441,43.0796355 45.277617,43.7497979 L52.0058462,50.4660051 C52.0063618,50.4665199 52.0068775,50.4672061 52.0073931,50.4677209 L59.1622167,57.6095996 C60.3474685,58.7929354 60.3474685,60.7179794 59.1623886,61.9009721 C57.9769648,63.0841364 56.0483525,63.0841364 54.8636163,61.9009721 L47.7087927,54.7587502 C47.5764487,54.6268109 47.4277766,54.5218085 47.2694795,54.4418557 L45.2288045,52.4047749 C44.5574597,51.7349557 43.4693174,51.7349557 42.7978007,52.4047749 C42.1266278,53.0747657 42.1266278,54.1613346 42.7978007,54.831497 L52.3715968,64.3880877 C53.5568486,65.5714235 53.5568486,67.4962959 52.3715968,68.6792886 C51.7975334,69.2525125 51.0340635,69.5680344 50.2222966,69.5680344 C49.4103578,69.5680344 48.6470598,69.2525125 48.0729964,68.6792886 L44.4299282,65.0428085 C44.7075068,64.3158557 44.8542883,63.537431 44.8542883,62.7361872 C44.8542883,61.009138 44.1805372,59.3853754 42.9571291,58.1641221 C41.733549,56.9428687 40.1069215,56.2703043 38.376997,56.2703043 C38.2895125,56.2703043 38.2025436,56.2732211 38.1155747,56.2766525 C38.1844967,54.5358775 37.5561207,52.7724549 36.2276968,51.4463707 C35.0041167,50.2251173 33.3774892,49.5525529 31.6475647,49.5525529 C31.5600802,49.5525529 31.4731113,49.5554696 31.3861424,49.5589011 C31.4552362,47.8181261 30.8266884,46.0547034 29.4982645,44.7286192 C28.2746844,43.5073659 26.6480569,42.8348015 24.9181324,42.8348015 C24.8306479,42.8348015 24.743679,42.8377182 24.6567101,42.8411497 C24.7258039,41.1003746 24.0972561,39.336952 22.7688322,38.0108678 C20.243297,35.4897809 16.1335875,35.4899524 13.6080523,38.0108678 L10.645954,40.9677491 C10.2722972,41.3407478 9.95553105,41.7489189 9.69221815,42.1809385 C5.65469626,37.900032 3.43853658,32.3347333 3.43853658,26.4288632 C3.43853658,20.2860514 5.83482154,14.510748 10.1863595,10.1672174 C14.5375538,5.82368688 20.323219,3.43145089 26.4766973,3.43145089 C32.0688309,3.43145089 37.3567454,5.40728032 41.5405331,9.02780415 L30.9775949,19.572138 C29.5826552,20.9647924 28.8143728,22.8162317 28.8143728,24.7855414 C28.8143728,26.7550226 29.5826552,28.6064619 30.9775949,29.9991163 C32.4175659,31.4363795 34.3090532,32.1550969 36.2003686,32.1550969 C38.091684,32.1550969 39.9831713,31.4365511 41.4231423,29.9991163 L46.1036496,25.3268527 L52.1627683,25.3268527 C52.6630972,25.3268527 53.1579261,25.2927098 53.6467394,25.2321447 L72.6222844,44.1739252 C73.8063331,45.3576042 73.8063331,47.2826481 72.6212532,48.4654693 Z" id="Shape" fill="#1F2A47"></path>
                </g>
            </g>
        </g>
    </g>
</svg>