<?xml version="1.0" encoding="UTF-8"?>
<svg width="98px" height="98px" viewBox="0 0 98 98" version="1.1" xmlns="http://www.w3.org/2000/svg" xmlns:xlink="http://www.w3.org/1999/xlink">
    <!-- Generator: Sketch 54.1 (76490) - https://sketchapp.com -->
    <title>pdf</title>
    <desc>Created with Sketch.</desc>
    <g id="Interface" stroke="none" stroke-width="1" fill="none" fill-rule="evenodd">
        <g id="Home-/-Web" transform="translate(-416.000000, -1240.000000)">
            <g id="pdf" transform="translate(416.000000, 1240.000000)">
                <circle id="Oval" fill="#1F2A47" cx="49" cy="49" r="49"></circle>
                <path d="M68.6744792,34.3651875 L57.5633333,23.3234863 C57.355,23.1164551 57.0729167,23 56.7777083,23 L33.444375,23 C30.9932292,23 29,24.9807715 29,27.4167012 L29,71.5834023 C29,74.0192285 30.9932292,76 33.4444792,76 L64.555625,76 C67.0067708,76 69,74.0192285 69,71.5832988 L69,35.1457988 C69,34.8525391 68.8828125,34.5722187 68.6744792,34.3651875 Z M57.8888542,26.7697285 L65.2065625,34.0417012 L60.1110417,34.0417012 C58.8860417,34.0417012 57.8888542,33.0507461 57.8888542,31.8334023 L57.8888542,26.7697285 L57.8888542,26.7697285 Z M66.7778125,71.5832988 C66.7778125,72.8006426 65.780625,73.7915977 64.555625,73.7915977 L33.4444792,73.7915977 C32.2194792,73.7915977 31.2222917,72.8006426 31.2222917,71.5832988 L31.2222917,27.4167012 C31.2222917,26.1993574 32.2194792,25.2084023 33.4444792,25.2084023 L55.6666667,25.2084023 L55.6666667,31.8334023 C55.6666667,34.2692285 57.6598958,36.25 60.1111458,36.25 L66.7778125,36.25 L66.7778125,71.5832988 Z" id="Shape" fill="#FFFFFF" fill-rule="nonzero"></path>
                <path d="M54.5234766,56.0260273 C53.5205469,55.2064297 52.5673828,54.3638398 51.9326172,53.7046602 C51.1074219,52.8477266 50.3721094,52.0171602 49.7331797,51.2261445 C50.7298125,48.0280156 51.1667344,46.3790117 51.1667344,45.5000352 C51.1667344,41.7658086 49.8675469,41 47.9167344,41 C46.4345312,41 44.6667344,41.7997695 44.6667344,45.6077188 C44.6667344,47.2864648 45.5522578,49.3244375 47.3073594,51.6930547 C46.8778516,53.0542344 46.3731875,54.6242422 45.8061641,56.3941133 C45.5331641,57.2433477 45.2370078,58.0299336 44.9237891,58.7572461 C44.6688672,58.8748438 44.4212578,58.9945508 44.1821797,59.1186875 C43.3210312,59.565875 42.50325,59.9679219 41.7446797,60.3414922 C38.2851562,62.0421758 36,63.1672109 36,65.3885938 C36,67.0014219 37.6874609,68 39.25,68 C41.2642891,68 44.3058828,65.2061328 46.5275625,60.4995898 C48.8338437,59.5548008 51.7009531,58.8549102 53.9638672,58.416582 C55.7771641,59.8645625 57.779875,61.25 58.75,61.25 C61.436125,61.25 62,59.6371719 62,58.2847461 C62,55.6249297 59.0736797,55.6249297 57.6666328,55.6249297 C57.2297109,55.6250352 56.0575781,55.7590859 54.5234766,56.0260273 Z M39.25,65.7500352 C38.6310781,65.7500352 38.2121328,65.4468125 38.1666328,65.3885938 C38.1666328,64.5909336 40.4570703,63.4637891 42.6724531,62.3739805 C42.8131172,62.304793 42.9560156,62.2355 43.1009453,62.1640977 C41.4738125,64.6141367 39.8646562,65.7500352 39.25,65.7500352 Z M46.8333672,45.6077188 C46.8333672,43.2500703 47.5380078,43.2500703 47.9167344,43.2500703 C48.6827187,43.2500703 49.0001016,43.2500703 49.0001016,45.5000352 C49.0001016,45.9746445 48.6954141,47.161168 48.1378359,49.0135156 C47.2871484,47.6533906 46.8333672,46.48775 46.8333672,45.6077188 Z M47.6638437,57.6992891 C47.7315859,57.50375 47.7971953,57.3059961 47.8606719,57.1060273 C48.2626562,55.8535859 48.6245234,54.7285508 48.9471875,53.7156289 C49.3968047,54.2297891 49.8813594,54.7560781 50.4008516,55.2954453 C50.6039766,55.5063828 51.1075234,55.9809922 51.7783437,56.5753086 C50.443,56.8774766 49.0222422,57.2521016 47.6638437,57.6992891 Z M59.8333672,58.2848516 C59.8333672,58.7902578 59.8333672,59.0000352 58.8283047,59.0066797 C58.5331641,58.9407617 57.8507656,58.5233164 57.0086094,57.9278398 C57.3143125,57.8927188 57.5396797,57.8751055 57.6666328,57.8751055 C59.2673594,57.8751055 59.7212422,58.0376328 59.8333672,58.2848516 Z" id="Shape" fill="#FFFFFF" fill-rule="nonzero"></path>
            </g>
        </g>
    </g>
</svg>