<?xml version="1.0" encoding="UTF-8"?>
<svg width="81px" height="73px" viewBox="0 0 81 73" version="1.1" xmlns="http://www.w3.org/2000/svg" xmlns:xlink="http://www.w3.org/1999/xlink">
    <!-- Generator: Sketch 54.1 (76490) - https://sketchapp.com -->
    <title>account</title>
    <desc>Created with Sketch.</desc>
    <g id="Interface" stroke="none" stroke-width="1" fill="none" fill-rule="evenodd">
        <g id="Home-/-Web" transform="translate(-365.000000, -1542.000000)" fill-rule="nonzero">
            <g id="Section-Valores" transform="translate(0.000000, 1338.000000)">
                <g id="account" transform="translate(365.000000, 204.000000)">
                    <path d="M65.9971712,0 L5.00298755,0 C2.24436648,0 0,2.21358646 0,4.93437485 L0,55.0657817 C0,57.7865701 2.24436648,60 5.00298755,60 L44.9509961,60 C45.6086196,60 46.1417678,59.4741636 46.1417678,58.825559 C46.1417678,58.1769543 45.6086196,57.6511179 44.9509961,57.6511179 L40.5029082,57.6511179 L40.5029082,50.0526411 C40.5029082,48.0542122 39.2945131,46.2663998 37.4242077,45.4980021 L31.1683695,42.9270724 C30.6634823,42.7195878 30.3372109,42.2369709 30.3372109,41.697511 L30.3372109,39.863817 C31.9403071,38.2557724 32.8786352,36.0661445 32.8786352,33.7600121 L32.8786352,28.7468714 C32.8786352,24.6440008 28.9241618,21.3059262 24.0635906,21.3059262 C19.2030193,21.3059262 15.2485459,24.6438442 15.2485459,28.7468714 L15.2485459,33.7600121 C15.2485459,36.0658313 16.186874,38.2556158 17.7899702,39.863817 L17.7899702,41.697511 C17.7899702,42.2369709 17.4636988,42.7195878 16.9588116,42.927229 L10.7031322,45.4980021 C8.83282684,46.2665564 7.62427296,48.0543688 7.62427296,50.0527976 L7.62427296,57.6512745 L5.00298755,57.6512745 C3.55754949,57.6512745 2.38154337,56.4913966 2.38154337,55.0659383 L2.38154337,14.8817338 L68.6184566,14.8817338 L68.6184566,34.3865373 C68.6184566,35.0351419 69.1516048,35.5609783 69.8092283,35.5609783 C70.4668518,35.5609783 71,35.0351419 71,34.3865373 L71,4.93437485 C71,2.21358646 68.7557923,0 65.9971712,0 Z M10.0058163,50.0526411 C10.0058163,49.0055094 10.6389893,48.0687753 11.6190738,47.6660203 L17.8749119,45.0952472 C19.2700201,44.5219634 20.1715136,43.1882681 20.1715136,41.697511 L20.1715136,41.4430487 C20.6086062,41.470609 21.0447462,41.2598359 21.2792488,40.8606826 C21.6086957,40.2992998 21.4145205,39.580855 20.8454904,39.2557698 C18.8622998,38.1232954 17.6302481,36.0174444 17.6302481,33.7601687 L17.6302481,28.747028 C17.6302481,25.939331 20.5163611,23.6549649 24.0637493,23.6549649 C27.6111376,23.6549649 30.4972506,25.9391744 30.4972506,28.747028 L30.4972506,33.7601687 C30.4972506,36.0183839 29.264405,38.1247048 27.2799443,39.2571791 C26.7107554,39.5819512 26.5162627,40.3003959 26.8455508,40.8619353 C27.0662404,41.2382262 27.466181,41.4485295 27.8773941,41.4485295 C27.9035911,41.4485295 27.9297881,41.445241 27.9559851,41.4435185 L27.9559851,41.6978242 C27.9559851,43.1885813 28.8574786,44.5222765 30.2527455,45.0955604 L36.5085836,47.6664901 C37.4885093,48.0690885 38.1216823,49.0059792 38.1216823,50.0529542 L38.1216823,57.6514311 L10.0058163,57.6514311 L10.0058163,50.0526411 Z M68.6184566,12.5328517 L2.38154337,12.5328517 L2.38154337,4.93437485 C2.38154337,3.50876003 3.55754949,2.34888206 5.00298755,2.34888206 L65.9971712,2.34888206 C67.4426093,2.34888206 68.6184566,3.50876003 68.6184566,4.93437485 L68.6184566,12.5328517 Z" id="Shape" fill="#1F2A47"></path>
                    <path d="M6.00265957,7 L5.99202128,7 C5.4412234,7 5,7.44773333 5,8 C5,8.55226667 5.4518617,9 6.00265957,9 C6.55345745,9 7,8.55226667 7,8 C7,7.44773333 6.55345745,7 6.00265957,7 Z" id="Path" fill="#005CA9"></path>
                    <path d="M14.0026596,7 L13.9920213,7 C13.4412234,7 13,7.44773333 13,8 C13,8.55226667 13.4518617,9 14.0026596,9 C14.5534574,9 15,8.55226667 15,8 C15,7.44773333 14.5534574,7 14.0026596,7 Z" id="Path" fill="#005CA9"></path>
                    <path d="M10.0026596,7 L9.99202128,7 C9.4412234,7 9,7.44773333 9,8 C9,8.55226667 9.4518617,9 10.0026596,9 C10.5534574,9 11,8.55226667 11,8 C11,7.44773333 10.5534574,7 10.0026596,7 Z" id="Path" fill="#005CA9"></path>
                    <path d="M64.8123751,7 L19.1876249,7 C18.5317393,7 18,7.44773333 18,8 C18,8.55226667 18.5317393,9 19.1876249,9 L64.8123751,9 C65.4682607,9 66,8.55226667 66,8 C66,7.44773333 65.4682607,7 64.8123751,7 Z" id="Path" fill="#1F2A47"></path>
                    <path d="M80.1941984,42.919462 L62.8949741,37.06496 C62.6394412,36.9783467 62.3614932,36.9783467 62.1059603,37.06496 L49.6657035,41.2748987 C49.0393597,41.4869145 48.7082557,42.1528715 48.926003,42.7622806 C49.1439104,43.3716897 49.8283735,43.6936857 50.4545572,43.4819815 L62.5003071,39.4055457 L78.5412401,44.8341468 C78.4014655,46.3260463 77.9310672,49.6686053 76.3712919,53.6712016 C74.4698454,58.5506802 70.5270178,65.3641603 62.5003071,70.4467754 C54.5081798,65.3856579 50.568074,58.6089417 48.6627849,53.7565687 C46.5293415,48.3231384 46.4025357,44.039516 46.4014149,43.9968325 C46.3865248,43.352373 45.845839,42.8429743 45.1754654,42.8548136 C44.5124569,42.8685222 43.9863409,43.402534 44.0002703,44.0476166 C44.0044331,44.235175 44.1261155,48.7063558 46.3834828,54.4994807 C48.4655314,59.8425589 52.8416122,67.35876 61.8654776,72.8235019 C62.059689,72.9411154 62.2798379,73 62.4999869,73 C62.7201358,73 62.9402848,72.9412712 63.1344962,72.8235019 C72.1583615,67.35876 76.5344423,59.8425589 78.616491,54.4994807 C80.8740184,48.7063558 80.9957007,44.235175 80.9997034,44.0476166 C81.0112312,43.5413335 80.685731,43.0856787 80.1941984,42.919462 Z" id="Path" fill="#F7941D"></path>
                    <path d="M70.6469613,49.3294726 C70.1762431,48.8901758 69.4130335,48.8901758 68.942476,49.3294726 L61.4900536,56.2844293 L57.057524,52.1477808 C56.5868057,51.7084841 55.8235962,51.7084841 55.3530387,52.1477808 C54.8823204,52.5870776 54.8823204,53.2993412 55.3530387,53.738488 L60.6378109,58.67049 C60.8730897,58.8902133 61.181652,59 61.4900536,59 C61.7984552,59 62.1070175,58.8902133 62.3422962,58.67049 L70.6469613,50.9201797 C71.1176796,50.4808829 71.1176796,49.7686193 70.6469613,49.3294726 Z" id="Path" fill="#F7941D"></path>
                    <path d="M60.5633868,20 L40.4366132,20 C39.0929632,20 38,21.1377392 38,22.5360707 L38,26.4639293 C38,27.8624243 39.0931203,29 40.4366132,29 L60.5632297,29 C61.9068797,29.0001636 63,27.8624243 63,26.4639293 L63,22.5360707 C63,21.1375757 61.9068797,20 60.5633868,20 Z M60.6422864,26.4639293 C60.6422864,26.5094062 60.6067659,26.546213 60.5632297,26.546213 L40.4366132,26.546213 C40.393077,26.5463766 40.3575564,26.5094062 40.3575564,26.4639293 L40.3575564,22.5360707 C40.3575564,22.4905938 40.393077,22.453787 40.4366132,22.453787 L60.5632297,22.453787 C60.606923,22.453787 60.6422864,22.4907574 60.6422864,22.5360707 L60.6422864,26.4639293 Z" id="Shape" fill="#1F2A47"></path>
                    <path d="M55.7842438,32 L40.2157562,32 C39.5443346,32 39,32.4477333 39,33 C39,33.5522667 39.5443346,34 40.2157562,34 L55.7842438,34 C56.4556654,34 57,33.5522667 57,33 C57,32.4477333 56.4556654,32 55.7842438,32 Z" id="Path" fill="#1F2A47"></path>
                    <path d="M48.8384372,37 L40.1615628,37 C39.5200704,37 39,37.4477333 39,38 C39,38.5522667 39.5200704,39 40.1615628,39 L48.8384372,39 C49.4799296,39 50,38.5522667 50,38 C50,37.4477333 49.4799296,37 48.8384372,37 Z" id="Path" fill="#1F2A47"></path>
                </g>
            </g>
        </g>
    </g>
</svg>