<?xml version="1.0" encoding="UTF-8"?>
<svg width="73px" height="73px" viewBox="0 0 73 73" version="1.1" xmlns="http://www.w3.org/2000/svg" xmlns:xlink="http://www.w3.org/1999/xlink">
    <!-- Generator: Sketch 54.1 (76490) - https://sketchapp.com -->
    <title>goal</title>
    <desc>Created with Sketch.</desc>
    <g id="Symbols" stroke="none" stroke-width="1" fill="none" fill-rule="evenodd">
        <g id="ico-/-governanca">
            <g id="goal">
                <path d="M36.5,13.2285767 C23.583313,13.2285767 13.0748596,23.7375869 13.0748596,36.654274 C13.0748596,49.570961 23.583313,60.0794143 36.5,60.0794143 C41.1310044,60.0794143 45.6094055,58.7299346 49.4506607,56.1768951 C50.1139832,55.736351 50.2944336,54.8413391 49.8533325,54.1780166 C49.4127884,53.5146943 48.5177764,53.3342437 47.8544541,53.7753448 C44.4871597,56.0131531 40.5612488,57.195549 36.5,57.195549 C25.1733933,57.195549 15.958725,47.9808808 15.958725,36.654274 C15.958725,25.3276672 25.1733933,16.112999 36.5,16.112999 C47.8266067,16.112999 57.041275,25.3276672 57.041275,36.654274 C57.041275,39.459053 56.4865571,42.1769485 55.3927154,44.7322158 C55.253479,45.0569153 55.1036606,45.3838425 54.9471587,45.7024155 C54.595726,46.416977 54.8903503,47.2813569 55.6054688,47.6327896 C56.3200302,47.9836655 57.1844101,47.6890411 57.5352859,46.9744797 C57.7140655,46.610794 57.8850479,46.2381973 58.0437774,45.8678284 C59.29245,42.9511032 59.9256973,39.8516998 59.9256973,36.654274 C59.9256973,23.7375869 49.416687,13.2285767 36.5,13.2285767 L36.5,13.2285767 Z" id="Path" fill="#1F2A47" fill-rule="nonzero"></path>
                <path d="M71.5580674,35.7898941 L69.3352966,35.7898941 C69.1186447,27.3399124 65.7262878,19.4279404 59.7263108,13.4279633 C53.8633423,7.56499485 46.1741485,4.1932449 37.9419326,3.84014133 L37.9419326,1.44193264 C37.9419326,0.645500219 37.2964326,0 36.5,0 C35.7035674,0 35.0580674,0.645500219 35.0580674,1.44193264 L35.0580674,3.84014133 C26.8258515,4.1932449 19.1366577,7.56499485 13.2736892,13.4279633 C7.27371216,19.4279404 3.88135525,27.3399124 3.66470337,35.7898941 L1.44193264,35.7898941 C0.645500219,35.7898941 -2.84217094e-14,36.4359512 -2.84217094e-14,37.2318267 C-2.84217094e-14,38.0282593 0.645500219,38.6737595 1.44193264,38.6737595 L3.71649929,38.6737595 C4.19937134,46.6876526 7.5482864,54.1551819 13.2736892,59.8805847 C19.1366577,65.7435532 26.8258515,69.115303 35.0580674,69.4684067 L35.0580674,71.5580674 C35.0580674,72.3544998 35.7035674,73 36.5,73 C37.2964326,73 37.9419326,72.3544998 37.9419326,71.5580674 L37.9419326,69.4684067 C46.1741485,69.115303 53.8633423,65.7435532 59.7263108,59.8805847 C65.4517136,54.1551819 68.8006287,46.6882095 69.2835007,38.6737595 L71.5580674,38.6737595 C72.3544998,38.6737595 73,38.0282593 73,37.2318267 C73,36.4359512 72.3544998,35.7898941 71.5580674,35.7898941 L71.5580674,35.7898941 Z M37.9419326,66.5817566 L37.9419326,64.2281036 C37.9419326,63.4322281 37.2964326,62.7861709 36.5,62.7861709 C35.7035674,62.7861709 35.0580674,63.4322281 35.0580674,64.2281036 L35.0580674,66.5817566 C19.8746109,65.8588409 7.61734768,53.7814712 6.60649116,38.6743164 L8.77189643,38.6743164 C9.56832886,38.6743164 10.2138291,38.0282593 10.2138291,37.2323838 C10.2138291,36.4359512 9.56832886,35.7898941 8.77189643,35.7898941 L6.55023953,35.7898941 C6.99579617,20.1469575 19.4892044,7.46808621 35.0580674,6.72679145 L35.0580674,8.77189643 C35.0580674,9.56777195 35.7035674,10.2138291 36.5,10.2138291 C37.2964326,10.2138291 37.9419326,9.56777195 37.9419326,8.77189643 L37.9419326,6.72679145 C53.5107956,7.46808621 66.0042038,20.1469575 66.4497605,35.7898941 L64.2281036,35.7898941 C63.4316711,35.7898941 62.7861709,36.4359512 62.7861709,37.2318267 C62.7861709,38.0282593 63.4316711,38.6737595 64.2281036,38.6737595 L66.3935088,38.6737595 C65.3826523,53.7814712 53.1253891,65.8588409 37.9419326,66.5817566 L37.9419326,66.5817566 Z" id="Shape" fill="#1F2A47" fill-rule="nonzero"></path>
                <path d="M53.6232986,49.9279633 C52.8847885,49.6294404 52.0443574,49.9864426 51.7458344,50.7243958 L51.7280122,50.7678375 C51.4294892,51.5063477 51.7864914,52.3467788 52.5244446,52.6453018 C52.7015533,52.7165908 52.8847885,52.7505645 53.0646821,52.7505645 C53.6349946,52.7505645 54.1752319,52.4097138 54.4019089,51.8488694 L54.4197312,51.8054275 C54.7182541,51.0669175 54.3612519,50.2264863 53.6232986,49.9279633 L53.6232986,49.9279633 Z" id="Path" fill="#005CA9" fill-rule="nonzero"></path>
                <circle id="Oval" fill="#F7941D" cx="36.5" cy="36.5" r="12.5"></circle>
            </g>
        </g>
    </g>
</svg>