<?xml version="1.0" encoding="UTF-8"?>
<svg width="62px" height="73px" viewBox="0 0 62 73" version="1.1" xmlns="http://www.w3.org/2000/svg" xmlns:xlink="http://www.w3.org/1999/xlink">
    <!-- Generator: Sketch 54.1 (76490) - https://sketchapp.com -->
    <title>ico-leadsCaixa-3</title>
    <desc>Created with Sketch.</desc>
    <g id="Interface" stroke="none" stroke-width="1" fill="none" fill-rule="evenodd">
        <g id="Home-/-Web" transform="translate(-562.000000, -1450.000000)" fill-rule="nonzero">
            <g id="Section-Valores" transform="translate(0.000000, 1338.000000)">
                <g id="ico-gestor-1" transform="translate(562.000000, 112.000000)">
                    <g id="ico-leadsCaixa-3">
                        <g id="Icon">
                            <path d="M46.2915763,0 L4.40738511,0 C2.05075827,0 0.133488051,1.91881641 0.133488051,4.27734375 L0.133488051,18.8203125 C0.133488051,19.6077715 0.771438419,20.2460938 1.5581204,20.2460938 C2.34480239,20.2460938 2.98275276,19.6077715 2.98275276,18.8203125 L2.98275276,4.27734375 C2.98275276,3.49116797 3.62184283,2.8515625 4.40738511,2.8515625 L46.2915763,2.8515625 C47.0771186,2.8515625 47.7162086,3.49116797 47.7162086,4.27734375 L47.7162086,57.3164062 C47.7162086,58.102582 47.0771186,58.7421875 46.2915763,58.7421875 L4.40738511,58.7421875 C3.62184283,58.7421875 2.98275276,58.102582 2.98275276,57.3164062 L2.98275276,30.8443535 C2.98275276,30.0568945 2.34480239,29.4185723 1.5581204,29.4185723 C0.771438419,29.4185723 0.133488051,30.0568945 0.133488051,30.8443535 L0.133488051,57.3164062 C0.133488051,59.6749336 2.05075827,61.59375 4.40738511,61.59375 L46.2915763,61.59375 C48.6482031,61.59375 50.5654733,59.6749336 50.5654733,57.3164062 L50.5654733,4.27734375 C50.5654733,1.91881641 48.6482031,0 46.2915763,0 Z" id="Shape" fill="#1F2A47"></path>
                            <path d="M2.56519301,24.1955078 C2.30035386,23.9303125 1.93279871,23.7791797 1.5581204,23.7791797 C1.1834421,23.7791797 0.815886949,23.9303125 0.550905331,24.1955078 C0.28578125,24.4621289 0.133488051,24.8299805 0.133488051,25.2035352 C0.133488051,25.5799414 0.285923713,25.9463672 0.550905331,26.2129883 C0.815886949,26.4781836 1.1834421,26.6307422 1.5581204,26.6307422 C1.93265625,26.6307422 2.3002114,26.4781836 2.56519301,26.2129883 C2.8303171,25.947793 2.98275276,25.5799414 2.98275276,25.2035352 C2.98275276,24.8285547 2.83017463,24.4621289 2.56519301,24.1955078 Z" id="Shape" fill="#005CA9"></path>
                            <path d="M8.27227022,64.8716211 C8.0072886,64.6064258 7.64130055,64.4538672 7.26505515,64.4538672 C6.89037684,64.4538672 6.52282169,64.6064258 6.25798254,64.8716211 C5.99285846,65.1368164 5.84042279,65.504668 5.84042279,65.8796484 C5.84042279,66.2560547 5.99300092,66.6224805 6.25798254,66.8876758 C6.52282169,67.1542969 6.89037684,67.3054297 7.26505515,67.3054297 C7.64130055,67.3054297 8.0072886,67.1542969 8.27227022,66.8876758 C8.5373943,66.6224805 8.6896875,66.2560547 8.6896875,65.8796484 C8.6896875,65.504668 8.53725184,65.1368164 8.27227022,64.8716211 Z" id="Shape" fill="#005CA9"></path>
                            <path d="M54.8483456,5.71210742 C54.0616636,5.71210742 53.4237132,6.35042969 53.4237132,7.13788867 L53.4237132,63.0285137 C53.4237132,63.8146895 52.7846232,64.4542949 51.9990809,64.4542949 L12.9641544,64.4542949 C12.1774724,64.4542949 11.5395221,65.0926172 11.5395221,65.8800762 C11.5395221,66.6675352 12.1774724,67.3058574 12.9641544,67.3058574 L51.9990809,67.3058574 C54.3557077,67.3058574 56.2729779,65.387041 56.2729779,63.0285137 L56.2729779,7.13788867 C56.2729779,6.35042969 55.6350276,5.71210742 54.8483456,5.71210742 Z" id="Shape" fill="#1F2A47"></path>
                            <path d="M60.5558502,11.40625 C59.7691682,11.40625 59.1312178,12.0445723 59.1312178,12.8320313 L59.1312178,68.7226562 C59.1312178,69.508832 58.4921278,70.1484375 57.7065855,70.1484375 L12.9731296,70.1484375 C12.1864476,70.1484375 11.5484972,70.7867598 11.5484972,71.5742187 C11.5484972,72.3616777 12.1864476,73 12.9731296,73 L57.7065855,73 C60.0632123,73 61.9804825,71.0811836 61.9804825,68.7226562 L61.9804825,12.8320313 C61.9804825,12.0445723 61.3425322,11.40625 60.5558502,11.40625 Z" id="Shape" fill="#1F2A47"></path>
                            <path d="M23.2125322,10.5507812 L9.53606158,10.5507812 C8.7493796,10.5507812 8.11142923,11.1891035 8.11142923,11.9765625 L8.11142923,25.6640625 C8.11142923,26.4515215 8.7493796,27.0898438 9.53606158,27.0898438 L23.2125322,27.0898438 C23.9992142,27.0898438 24.6371645,26.4515215 24.6371645,25.6640625 L24.6371645,11.9765625 C24.6371645,11.1891035 23.9992142,10.5507812 23.2125322,10.5507812 Z M21.7878998,24.2382812 L10.9606939,24.2382812 L10.9606939,13.4023437 L21.7878998,13.4023437 L21.7878998,24.2382812 Z" id="Shape" fill="#1F2A47"></path>
                            <path d="M18.6286351,33.5631758 C18.0721737,33.0065508 17.1703814,33.0064082 16.6137776,33.5631758 L12.8266774,37.3533301 L11.0658318,35.5909219 C10.5095129,35.0341543 9.60772059,35.0342969 9.05097426,35.5909219 C8.49465533,36.1476895 8.49465533,37.0504941 9.05097426,37.6072617 L11.8193199,40.3778398 C12.0865809,40.6451738 12.4488649,40.7954512 12.8266774,40.7954512 C13.2046324,40.7954512 13.5667739,40.6451738 13.8341774,40.3778398 L18.6286351,35.5795156 C19.184954,35.022748 19.184954,34.1199434 18.6286351,33.5631758 Z" id="Shape" fill="#F7941D"></path>
                            <path d="M41.970239,35.5019531 L25.3494807,35.5019531 C24.5627987,35.5019531 23.9248483,36.1402754 23.9248483,36.9277344 C23.9248483,37.7151934 24.5627987,38.3535156 25.3494807,38.3535156 L41.970239,38.3535156 C42.756921,38.3535156 43.3948713,37.7151934 43.3948713,36.9277344 C43.3948713,36.1402754 42.756921,35.5019531 41.970239,35.5019531 Z" id="Shape" fill="#1F2A47"></path>
                            <path d="M41.1628998,10.5507812 L31.1904733,10.5507812 C30.4037914,10.5507812 29.765841,11.1891035 29.765841,11.9765625 C29.765841,12.7640215 30.4037914,13.4023437 31.1904733,13.4023437 L41.1628998,13.4023437 C41.9495818,13.4023437 42.5875322,12.7640215 42.5875322,11.9765625 C42.5875322,11.1891035 41.9495818,10.5507812 41.1628998,10.5507812 Z" id="Shape" fill="#1F2A47"></path>
                            <path d="M41.1628998,17.3945313 L31.1904733,17.3945313 C30.4037914,17.3945313 29.765841,18.0328535 29.765841,18.8203125 C29.765841,19.6077715 30.4037914,20.2460938 31.1904733,20.2460938 L41.1628998,20.2460938 C41.9495818,20.2460938 42.5875322,19.6077715 42.5875322,18.8203125 C42.5875322,18.0328535 41.9495818,17.3945313 41.1628998,17.3945313 Z" id="Shape" fill="#1F2A47"></path>
                            <path d="M41.1628998,24.2382813 L31.1904733,24.2382813 C30.4037914,24.2382813 29.765841,24.8766035 29.765841,25.6640625 C29.765841,26.4515215 30.4037914,27.0898438 31.1904733,27.0898438 L41.1628998,27.0898438 C41.9495818,27.0898438 42.5875322,26.4515215 42.5875322,25.6640625 C42.5875322,24.8766035 41.9495818,24.2382813 41.1628998,24.2382813 Z" id="Shape" fill="#1F2A47"></path>
                            <path d="M18.6286351,44.4514395 C18.0721737,43.8948145 17.1703814,43.8946719 16.6137776,44.4514395 L12.8266774,48.2415937 L11.0658318,46.4791855 C10.5095129,45.922418 9.60772059,45.9225605 9.05097426,46.4791855 C8.49465533,47.0359531 8.49465533,47.9387578 9.05097426,48.4955254 L11.8193199,51.2661035 C12.0865809,51.5334375 12.4488649,51.6837148 12.8266774,51.6837148 C13.2046324,51.6837148 13.5667739,51.5334375 13.8341774,51.2661035 L18.6286351,46.4677793 C19.184954,45.9110117 19.184954,45.008207 18.6286351,44.4514395 Z" id="Shape" fill="#F7941D"></path>
                            <path d="M41.970239,46.3378906 L25.3494807,46.3378906 C24.5627987,46.3378906 23.9248483,46.9762129 23.9248483,47.7636719 C23.9248483,48.5511309 24.5627987,49.1894531 25.3494807,49.1894531 L41.970239,49.1894531 C42.756921,49.1894531 43.3948713,48.5511309 43.3948713,47.7636719 C43.3948713,46.9762129 42.756921,46.3378906 41.970239,46.3378906 Z" id="Shape" fill="#1F2A47"></path>
                        </g>
                    </g>
                </g>
            </g>
        </g>
    </g>
</svg>