<?xml version="1.0" encoding="UTF-8"?>
<svg width="159px" height="56px" viewBox="0 0 159 56" version="1.1" xmlns="http://www.w3.org/2000/svg" xmlns:xlink="http://www.w3.org/1999/xlink">
    <!-- Generator: Sketch 54.1 (76490) - https://sketchapp.com -->
    <title>Logo</title>
    <desc>Created with Sketch.</desc>
    <g id="Interface" stroke="none" stroke-width="1" fill="none" fill-rule="evenodd">
        <g id="Home-/-Web" transform="translate(-165.000000, -46.000000)">
            <g id="Hero">
                <g id="Menubar" transform="translate(165.000000, 46.000000)">
                    <g id="Marca-CaixaImoveis-negativa">
                        <g id="Shape">
                            <polygon fill="#F7941D" points="51.6235821 22.9126761 61.3138806 22.9126761 71.9455224 12.3121127 62.2473134 12.3121127"></polygon>
                            <polygon fill="#F7941D" points="73.9547761 0.638873239 69.7464179 4.83492958 73.0213433 11.2394366 83.6529851 0.638873239"></polygon>
                            <polygon fill="#FFFFFF" points="46.7349254 0.638873239 54.8431343 0.638873239 51.2992537 22.9126761 43.1910448 22.9126761 46.7349254 0.638873239 46.7349254 0.638873239"></polygon>
                            <path d="M25.5902985,22.9126761 L17.0074627,22.9126761 L28.3035821,0.638873239 L37.2740299,0.638873239 L41.7197015,22.9126761 L33.1210448,22.9126761 L32.8204478,20.136338 L26.6819403,20.136338 L25.5902985,22.9126761 L25.5902985,22.9126761 Z M32.3062687,14.8597183 L31.9107463,10.7819718 L31.9107463,10.7819718 C31.8158209,9.81183099 31.8553731,8.3684507 31.871194,7.33521127 L31.5389552,7.33521127 L28.7623881,14.8597183 L32.3062687,14.8597183 Z" fill="#FFFFFF"></path>
                            <polygon fill="#FFFFFF" points="57.9123881 0.638873239 67.6026866 0.638873239 73.0213433 11.2394366 63.3310448 11.2394366"></polygon>
                            <path d="M86.2238806,22.9126761 L77.6568657,22.9126761 L88.9529851,0.638873239 L97.9234328,0.638873239 L102.369104,22.9126761 L93.7704478,22.9126761 L93.4698507,20.136338 L87.3313433,20.136338 L86.2238806,22.9126761 Z M92.9398507,14.8597183 L92.5443284,10.7819718 L92.5443284,10.7819718 C92.449403,9.81183099 92.4889552,8.3684507 92.5047761,7.33521127 L92.1725373,7.33521127 L89.3880597,14.8597183 L92.9319403,14.8597183 L92.9398507,14.8597183 Z" fill="#FFFFFF"></path>
                            <path d="M18.2573134,9.66197183 C17.1743334,8.32524214 15.5723122,7.51080042 13.851194,7.42197183 C11.3349091,7.48122959 9.20520641,9.29194655 8.74895522,11.76 C8.55222871,12.8698786 8.87371409,14.008636 9.62221088,14.8532242 C10.3707077,15.6978123 11.4645505,16.1560816 12.5934328,16.0980282 C14.4508466,16.0408779 16.223252,15.3087421 17.5770149,14.0394366 L17.5770149,14.0394366 L15.9949254,22.376338 L15.9949254,22.376338 C14.5947761,22.983662 11.5334328,23.251831 10.0779104,23.251831 C3.74955224,23.251831 -0.474626866,18.3222535 0.53,11.9729577 C1.58208955,5.46591549 7.52283582,0.268169014 14.0726866,0.268169014 C15.8775667,0.27548509 17.6686631,0.582013408 19.3726866,1.17521127 L19.3726866,1.17521127 L18.2573134,9.66197183 Z" fill="#FFFFFF"></path>
                            <polygon fill="#FFFFFF" points="65.5222388 18.7166197 71.9455224 12.3121127 77.3562687 22.9126761 67.6659701 22.9126761"></polygon>
                            <polygon fill="#F7941D" fill-rule="nonzero" points="73.0846269 33.4738028 84.4598507 55.731831 158.604478 55.731831 147.237164 33.4738028"></polygon>
                            <path d="M92.4652239,37.5357746 C92.4608613,38.257836 91.8710333,38.8400681 91.1468477,38.8371726 C90.4226621,38.834277 89.8375362,38.2473471 89.8389817,37.525274 C89.8404271,36.803201 90.4278981,36.2186047 91.1520896,36.2185915 C91.5017293,36.2185852 91.8369346,36.3576107 92.0834237,36.6048598 C92.3299129,36.8521089 92.4673301,37.1871632 92.4652239,37.5357746 L92.4652239,37.5357746 Z M92.2595522,48.5385915 L90.0446269,48.5385915 L90.0446269,40.7853521 L92.2595522,40.7853521 L92.2595522,48.5385915 Z" fill="#FFFFFF" fill-rule="nonzero"></path>
                            <path d="M96.5549254,41.4794366 L96.5549254,41.4794366 C97.0031022,40.8836143 97.7064715,40.5329577 98.4534328,40.5329577 C99.3654386,40.4938294 100.224195,40.961425 100.684179,41.7476056 C101.186586,40.9863458 102.040519,40.5294772 102.954478,40.5329577 C104.93209,40.5329577 105.422537,42.0157746 105.422537,43.6878873 L105.422537,48.5149296 L103.207612,48.5149296 L103.207612,44.4687324 C103.207612,43.68 103.255075,42.2997183 102.163433,42.2997183 C100.953134,42.2997183 100.968955,43.9323944 100.968955,44.7369014 L100.968955,48.5385915 L98.7540299,48.5385915 L98.7540299,44.5949296 C98.7540299,43.8061972 98.8489552,42.2839437 97.6940299,42.2839437 C96.5391045,42.2839437 96.5232836,43.8614085 96.5232836,44.7211268 L96.5232836,48.5228169 L94.3004478,48.5228169 L94.3004478,40.7853521 L96.5232836,40.7853521 L96.5549254,41.4794366 Z" fill="#FFFFFF" fill-rule="nonzero"></path>
                            <path d="M115.065373,44.6738028 C115.030531,46.9183627 113.182769,48.7127189 110.931493,48.6882008 C108.680218,48.6636826 106.872205,46.8295123 106.886543,44.5847291 C106.900881,42.3399459 108.732176,40.5288845 110.983582,40.5329577 C112.08955,40.4962399 113.160369,40.9231581 113.936046,41.7100574 C114.711724,42.4969568 115.121315,43.5718673 115.065373,44.6738028 L115.065373,44.6738028 Z M109.140448,44.6738028 C109.31214,45.6441875 110.212552,46.3130418 111.194217,46.1994059 C112.175881,46.0857701 112.898655,45.2290185 112.842806,44.245224 C112.786957,43.2614296 111.971837,42.4914727 110.983582,42.4890141 C109.881341,42.6012644 109.072221,43.5728779 109.164179,44.6738028 L109.140448,44.6738028 Z M113.372537,37.2912676 L110.999403,39.6574648 L109.876119,38.9633803 L111.774627,36.3053521 L113.372537,37.2912676 Z" fill="#FFFFFF" fill-rule="nonzero"></path>
                            <polygon fill="#FFFFFF" fill-rule="nonzero" points="119.692985 45.1628169 121.275075 40.7853521 123.703582 40.7853521 120.120149 48.6726761 118.981045 48.6726761 115.413433 40.7853521 117.865672 40.7853521"></polygon>
                            <path d="M126.424776,45.0208451 C126.424776,45.9988732 126.804478,47.1030986 127.959403,47.1030986 C128.625875,47.0890623 129.215837,46.6697866 129.446567,46.0461972 L131.495373,46.3774648 C130.982112,47.8734243 129.543805,48.8551587 127.959403,48.7909859 C125.586269,48.7909859 124.075373,47.0873239 124.075373,44.7369014 C124.075373,42.3864789 125.333134,40.5329577 127.848657,40.5329577 C130.364179,40.5329577 131.542836,42.4101408 131.542836,44.7526761 L131.542836,45.0208451 L126.424776,45.0208451 Z M129.446567,43.6484507 C129.42998,42.8259995 128.796717,42.1470622 127.975224,42.0709859 C127.138735,42.1211175 126.48655,42.8129035 126.488057,43.6484507 L129.446567,43.6484507 Z" fill="#FFFFFF" fill-rule="nonzero"></path>
                            <path d="M135.49806,37.5357746 C135.493697,38.257836 134.903869,38.8400681 134.179683,38.8371726 C133.455498,38.834277 132.870372,38.2473471 132.871817,37.525274 C132.873263,36.803201 133.460734,36.2186047 134.184925,36.2185915 C134.534565,36.2185852 134.86977,36.3576107 135.11626,36.6048598 C135.362749,36.8521089 135.500166,37.1871632 135.49806,37.5357746 L135.49806,37.5357746 Z M135.268657,48.5385915 L133.053731,48.5385915 L133.053731,40.7853521 L135.268657,40.7853521 L135.268657,48.5385915 Z" fill="#FFFFFF" fill-rule="nonzero"></path>
                            <path d="M141.359701,42.5915493 C141.051697,42.2713337 140.63326,42.0796409 140.188955,42.0552113 C139.807499,42.0459179 139.486518,42.3381307 139.461194,42.7177465 C139.461194,43.2935211 140.252239,43.4512676 141.043284,43.7983099 C142.014628,44.0974057 142.663478,45.0096106 142.625373,46.0225352 C142.617016,46.7954784 142.28676,47.5301683 141.713661,48.0507318 C141.140563,48.5712952 140.376212,48.8308721 139.603582,48.7673239 C138.541571,48.7630201 137.536184,48.2892403 136.858657,47.4738028 L137.871194,46.164507 C138.274325,46.6787542 138.872594,47.0041285 139.524478,47.063662 C139.754967,47.0766916 139.980647,46.9943937 140.148319,46.8361683 C140.31599,46.677943 140.410818,46.4577899 140.410448,46.2276056 C140.410448,45.5492958 139.619403,45.3915493 138.828358,45.0602817 C137.890293,44.8266257 137.235753,43.9814739 137.246269,43.0174648 C137.205188,42.3474748 137.451434,41.6916159 137.923677,41.2132309 C138.395921,40.734846 139.049718,40.4789578 139.722239,40.5092958 C140.620219,40.4879839 141.49974,40.7654996 142.22194,41.2980282 L141.359701,42.5915493 Z" fill="#FFFFFF" fill-rule="nonzero"></path>
                        </g>
                    </g>
                </g>
            </g>
        </g>
    </g>
</svg>