<?xml version="1.0" encoding="UTF-8"?>
<svg width="201px" height="71px" viewBox="0 0 201 71" version="1.1" xmlns="http://www.w3.org/2000/svg" xmlns:xlink="http://www.w3.org/1999/xlink">
    <!-- Generator: Sketch 53.2 (72643) - https://sketchapp.com -->
    <title>Marca-CaixaImoveis-negativa</title>
    <desc>Created with Sketch.</desc>
    <g id="Symbols" stroke="none" stroke-width="1" fill="none" fill-rule="evenodd">
        <g id="Marca-CaixaImoveis-negativa">
            <g id="Shape">
                <polygon fill="#F7941D" points="65.26 29.05 77.51 29.05 90.95 15.61 78.69 15.61"></polygon>
                <polygon fill="#F7941D" points="93.49 0.81 88.17 6.13 92.31 14.25 105.75 0.81"></polygon>
                <polygon fill="#0066B3" points="59.08 0.81 69.33 0.81 64.85 29.05 54.6 29.05 59.08 0.81 59.08 0.81"></polygon>
                <path d="M32.35,29.05 L21.5,29.05 L35.78,0.81 L47.12,0.81 L52.74,29.05 L41.87,29.05 L41.49,25.53 L33.73,25.53 L32.35,29.05 L32.35,29.05 Z M40.84,18.84 L40.34,13.67 L40.34,13.67 C40.22,12.44 40.27,10.61 40.29,9.3 L39.87,9.3 L36.36,18.84 L40.84,18.84 Z" fill="#0066B3"></path>
                <polygon fill="#0066B3" points="73.21 0.81 85.46 0.81 92.31 14.25 80.06 14.25"></polygon>
                <path d="M109,29.05 L98.17,29.05 L112.45,0.81 L123.79,0.81 L129.41,29.05 L118.54,29.05 L118.16,25.53 L110.4,25.53 L109,29.05 Z M117.49,18.84 L116.99,13.67 L116.99,13.67 C116.87,12.44 116.92,10.61 116.94,9.3 L116.52,9.3 L113,18.84 L117.48,18.84 L117.49,18.84 Z" fill="#0066B3"></path>
                <path d="M23.08,12.25 C21.7109498,10.5552177 19.6857532,9.52262197 17.51,9.41 C14.3290361,9.48513037 11.6367704,11.7808608 11.06,14.91 C10.811308,16.3171675 11.217714,17.7609493 12.163927,18.8317664 C13.1101399,19.9025834 14.4929223,20.4836035 15.92,20.41 C18.2680514,20.3375416 20.5086393,19.409298 22.22,17.8 L22.22,17.8 L20.22,28.37 L20.22,28.37 C18.45,29.14 14.58,29.48 12.74,29.48 C4.74,29.48 -0.6,23.23 0.67,15.18 C2,6.93 9.51,0.34 17.79,0.34 C20.0716409,0.349275739 22.3358571,0.737909856 24.49,1.49 L24.49,1.49 L23.08,12.25 Z" fill="#0066B3"></path>
                <polygon fill="#0066B3" points="82.83 23.73 90.95 15.61 97.79 29.05 85.54 29.05"></polygon>
                <polygon fill="#F7941D" fill-rule="nonzero" points="92.39 42.44 106.77 70.66 200.5 70.66 186.13 42.44"></polygon>
                <path d="M116.89,47.59 C116.884485,48.5054707 116.138853,49.2436578 115.223373,49.2399867 C114.307894,49.2363155 113.568206,48.4921722 113.570033,47.5766867 C113.571861,46.6612013 114.314513,45.9200166 115.23,45.92 C115.671997,45.919992 116.095748,46.0962564 116.407347,46.4097329 C116.718946,46.7232095 116.892663,47.1480105 116.89,47.59 L116.89,47.59 Z M116.63,61.54 L113.83,61.54 L113.83,51.71 L116.63,51.71 L116.63,61.54 Z" fill="#FFFFFF" fill-rule="nonzero"></path>
                <path d="M122.06,52.59 L122.06,52.59 C122.626563,51.8345825 123.515728,51.39 124.46,51.39 C125.612913,51.3403908 126.698511,51.9332352 127.28,52.93 C127.915118,51.9648313 128.994619,51.3855872 130.15,51.39 C132.65,51.39 133.27,53.27 133.27,55.39 L133.27,61.51 L130.47,61.51 L130.47,56.38 C130.47,55.38 130.53,53.63 129.15,53.63 C127.62,53.63 127.64,55.7 127.64,56.72 L127.64,61.54 L124.84,61.54 L124.84,56.54 C124.84,55.54 124.96,53.61 123.5,53.61 C122.04,53.61 122.02,55.61 122.02,56.7 L122.02,61.52 L119.21,61.52 L119.21,51.71 L122.02,51.71 L122.06,52.59 Z" fill="#FFFFFF" fill-rule="nonzero"></path>
                <path d="M145.46,56.64 C145.415955,59.4857813 143.080105,61.7607686 140.234152,61.7296831 C137.3882,61.6985976 135.102599,59.3731316 135.120724,56.5270672 C135.138849,53.6810028 137.453883,51.3848358 140.3,51.39 C141.698111,51.343447 143.051788,51.8847183 144.032361,52.8823942 C145.012933,53.8800702 145.530719,55.2429032 145.46,56.64 L145.46,56.64 Z M137.97,56.64 C138.187045,57.8703091 139.325302,58.7183208 140.566274,58.5742468 C141.807246,58.4301728 142.720941,57.3439342 142.65034,56.0966233 C142.579739,54.8493125 141.549303,53.8731172 140.3,53.87 C138.906601,54.0123173 137.883751,55.2441845 138,56.64 L137.97,56.64 Z M143.32,47.28 L140.32,50.28 L138.9,49.4 L141.3,46.03 L143.32,47.28 Z" fill="#FFFFFF" fill-rule="nonzero"></path>
                <polygon fill="#FFFFFF" fill-rule="nonzero" points="151.31 57.26 153.31 51.71 156.38 51.71 151.85 61.71 150.41 61.71 145.9 51.71 149 51.71"></polygon>
                <path d="M159.82,57.08 C159.82,58.32 160.3,59.72 161.76,59.72 C162.602522,59.702204 163.348323,59.1706223 163.64,58.38 L166.23,58.8 C165.58116,60.6966629 163.762924,61.9413619 161.76,61.86 C158.76,61.86 156.85,59.7 156.85,56.72 C156.85,53.74 158.44,51.39 161.62,51.39 C164.8,51.39 166.29,53.77 166.29,56.74 L166.29,57.08 L159.82,57.08 Z M163.64,55.34 C163.619032,54.2972494 162.818492,53.4364539 161.78,53.34 C160.722552,53.4035597 159.898092,54.2806455 159.899997,55.34 L163.64,55.34 Z" fill="#FFFFFF" fill-rule="nonzero"></path>
                <path d="M171.29,47.59 C171.284485,48.5054707 170.538853,49.2436578 169.623373,49.2399867 C168.707894,49.2363155 167.968206,48.4921722 167.970033,47.5766867 C167.971861,46.6612013 168.714513,45.9200166 169.63,45.92 C170.071997,45.919992 170.495748,46.0962564 170.807347,46.4097329 C171.118946,46.7232095 171.292663,47.1480105 171.29,47.59 L171.29,47.59 Z M171,61.54 L168.2,61.54 L168.2,51.71 L171,51.71 L171,61.54 Z" fill="#FFFFFF" fill-rule="nonzero"></path>
                <path d="M178.7,54 C178.310636,53.5940123 177.781668,53.3509733 177.22,53.32 C176.737782,53.3082173 176.332014,53.6787014 176.3,54.16 C176.3,54.89 177.3,55.09 178.3,55.53 C179.527926,55.9092107 180.348171,57.0657563 180.3,58.35 C180.289436,59.3299816 179.871942,60.2614634 179.147459,60.9214635 C178.422976,61.5814636 177.456721,61.91057 176.48,61.83 C175.137458,61.8245433 173.866496,61.2238583 173.01,60.19 L174.29,58.53 C174.799619,59.1819919 175.55592,59.5945201 176.38,59.67 C176.671373,59.6865197 176.956667,59.5821777 177.168629,59.3815706 C177.380592,59.1809634 177.500468,58.9018407 177.5,58.61 C177.5,57.75 176.5,57.55 175.5,57.13 C174.314145,56.8337576 173.486707,55.7622258 173.5,54.54 C173.448068,53.6905484 173.75936,52.859013 174.356347,52.2524892 C174.953334,51.6459654 175.779832,51.3215357 176.63,51.36 C177.765183,51.3329796 178.877029,51.6848298 179.79,52.36 L178.7,54 Z" fill="#FFFFFF" fill-rule="nonzero"></path>
            </g>
        </g>
    </g>
</svg>